<?xml version="1.0" standalone="no"?>
<!DOCTYPE svg PUBLIC "-//W3C//DTD SVG 20010904//EN"
 "http://www.w3.org/TR/2001/REC-SVG-20010904/DTD/svg10.dtd">
<svg version="1.0" xmlns="http://www.w3.org/2000/svg"
 width="1709.000000pt" height="432.000000pt" viewBox="0 0 1709.000000 432.000000"
 preserveAspectRatio="xMidYMid meet">

<g transform="translate(0.000000,432.000000) scale(0.100000,-0.100000)"
fill="#000000" stroke="none">
<path d="M1654 3785 c-16 -41 27 -68 59 -37 17 17 18 23 7 36 -16 20 -59 21
-66 1z"/>
<path d="M1186 3399 c-29 -23 -35 -69 -15 -113 20 -42 117 -52 143 -14 23 32
21 110 -2 131 -26 24 -93 22 -126 -4z"/>
<path d="M1645 3390 c-14 -15 -16 -29 -11 -62 8 -51 21 -68 51 -68 31 0 65 45
65 86 0 57 -68 85 -105 44z"/>
<path d="M2144 3336 c-8 -22 3 -33 18 -18 9 9 9 15 0 24 -9 9 -13 7 -18 -6z"/>
<path d="M762 3042 c-11 -15 -31 -34 -45 -41 -22 -11 -67 -87 -67 -111 0 -16
79 -98 116 -121 30 -18 38 -19 71 -8 45 14 143 109 143 138 0 11 -33 52 -76
95 -85 85 -110 94 -142 48z"/>
<path d="M1213 3010 c-22 -9 -82 -94 -83 -116 0 -14 54 -83 78 -99 9 -7 29
-15 45 -19 23 -5 35 1 82 47 30 29 55 60 55 69 0 9 -21 41 -46 72 -49 59 -76
68 -131 46z"/>
<path d="M1643 2991 c-29 -31 -56 -89 -50 -105 3 -8 25 -27 47 -42 l42 -28 45
25 c25 13 47 30 50 37 9 22 -6 57 -40 95 -39 41 -67 47 -94 18z"/>
<path d="M12990 2999 c-14 -5 -40 -24 -58 -42 -33 -32 -34 -32 -125 -30 -103
3 -144 -9 -158 -44 -15 -39 -11 -62 16 -88 20 -21 34 -25 88 -25 95 0 113 -35
56 -106 -17 -22 -42 -60 -55 -86 -13 -27 -28 -48 -33 -48 -4 0 -22 -26 -39
-59 -18 -32 -39 -64 -48 -72 -21 -18 -34 -52 -28 -76 3 -11 30 -31 62 -47 l57
-28 43 48 c24 26 54 68 67 94 13 25 31 52 39 59 9 8 30 39 47 70 16 31 47 76
68 100 43 50 61 50 89 0 9 -17 27 -44 39 -59 12 -15 32 -45 45 -67 13 -22 37
-61 53 -86 17 -25 37 -59 47 -75 9 -17 34 -43 57 -57 l40 -27 51 33 c53 34 65
64 34 90 -8 7 -26 34 -39 59 -13 26 -35 60 -48 76 -13 16 -34 48 -46 72 -12
23 -25 42 -30 42 -5 0 -21 24 -37 54 -28 54 -28 55 -10 75 16 17 31 21 86 21
38 0 71 5 78 12 7 7 12 36 12 65 0 72 -23 88 -115 78 -93 -10 -140 1 -185 41
-41 38 -82 49 -120 33z"/>
<path d="M13960 2999 c-14 -5 -40 -24 -58 -42 -30 -29 -38 -32 -92 -30 -79 3
-103 -16 -104 -81 -1 -42 3 -51 32 -77 38 -34 40 -50 11 -88 -18 -25 -21 -40
-18 -109 4 -71 7 -84 30 -109 15 -15 32 -38 38 -51 7 -13 37 -34 71 -49 32
-14 61 -31 64 -39 3 -7 -6 -27 -20 -43 -33 -39 -56 -98 -49 -122 4 -11 20 -26
36 -35 26 -13 61 -14 234 -9 l203 6 28 -24 c25 -22 28 -32 34 -113 4 -60 12
-98 24 -117 33 -49 100 -48 138 4 17 23 20 43 20 173 0 142 -1 148 -26 185
-33 47 -33 63 1 120 24 41 26 53 24 138 -2 104 4 120 60 176 44 43 50 77 19
105 -11 9 -31 26 -43 37 -14 12 -28 42 -35 76 -15 65 -46 100 -89 101 -76 2
-83 -25 -90 -327 -6 -251 -6 -253 17 -290 29 -46 18 -79 -30 -89 -50 -10 -276
-7 -304 4 -53 20 -25 62 57 89 21 7 45 25 54 39 9 15 28 40 42 55 22 24 26 39
30 109 3 69 0 84 -18 109 -28 38 -27 52 9 87 25 25 30 39 30 76 0 65 -27 91
-86 82 -53 -7 -89 5 -129 44 -35 33 -78 44 -115 29z m78 -323 c26 -13 72 -81
72 -105 0 -21 -84 -91 -109 -91 -25 0 -92 52 -103 81 -9 24 29 97 61 114 33
18 46 18 79 1z"/>
<path d="M15141 3000 c-20 -5 -44 -21 -58 -39 -22 -28 -30 -31 -76 -31 -141 0
-173 -48 -106 -157 20 -32 21 -40 11 -80 -15 -54 -15 -78 -1 -143 9 -44 22
-63 85 -128 41 -42 74 -81 74 -87 0 -24 -27 -35 -88 -35 -119 0 -156 -48 -88
-116 l34 -34 268 2 c276 2 291 0 329 -39 15 -14 16 -29 10 -99 -6 -70 -4 -89
13 -128 23 -50 50 -64 94 -47 60 23 59 11 59 567 0 484 -1 509 -19 533 -27 37
-66 55 -92 41 -42 -22 -45 -43 -50 -335 -5 -305 -7 -315 -64 -335 -38 -13
-162 -13 -187 0 -10 6 -19 16 -19 24 0 7 28 41 61 77 84 88 119 181 93 253
-21 62 -17 85 21 127 42 47 47 91 12 114 -13 8 -59 18 -102 22 -72 6 -82 9
-110 39 -35 37 -57 45 -104 34z m90 -299 c43 -43 48 -70 25 -126 -22 -52 -56
-65 -127 -45 -88 25 -77 172 14 199 47 14 46 14 88 -28z"/>
<path d="M4936 2985 c-9 -9 -20 -23 -25 -32 -7 -13 -31 -19 -98 -25 -72 -6
-91 -11 -105 -29 -24 -29 -23 -84 2 -106 11 -10 29 -26 41 -36 14 -13 19 -26
15 -40 -39 -131 -39 -142 -18 -214 25 -81 49 -106 148 -157 91 -47 126 -47
212 1 108 59 129 84 152 186 8 36 6 60 -10 123 -11 42 -20 79 -20 81 0 2 16
19 36 37 31 28 37 40 37 75 0 23 -5 47 -10 52 -15 15 -80 28 -134 29 -39 0
-50 5 -78 35 -28 31 -37 35 -81 35 -30 0 -54 -6 -64 -15z m121 -313 c18 -11
43 -89 36 -110 -34 -95 -131 -107 -175 -21 -15 30 -16 41 -7 70 19 55 37 69
88 69 25 0 51 -4 58 -8z"/>
<path d="M4134 2969 c-63 -30 -77 -52 -82 -119 -7 -90 4 -128 41 -151 28 -17
43 -19 129 -13 l98 7 33 -37 c61 -67 94 -43 96 69 0 32 8 81 18 107 20 56 15
70 -36 105 -35 24 -67 20 -77 -9 -3 -11 -3 -45 1 -77 8 -73 -3 -84 -88 -85
-78 -1 -127 18 -127 49 0 17 16 33 60 61 67 43 86 77 55 101 -27 19 -74 16
-121 -8z"/>
<path d="M5438 2969 c-32 -18 -38 -78 -38 -410 0 -336 4 -380 40 -399 32 -17
85 -12 106 11 17 19 20 43 24 223 l5 203 48 52 c26 29 47 63 47 75 0 12 -17
39 -40 61 -31 30 -45 56 -61 107 -12 41 -27 72 -39 78 -24 13 -70 12 -92 -1z"/>
<path d="M5897 2969 c-24 -14 -49 -66 -42 -88 3 -10 14 -26 25 -36 19 -17 42
-18 279 -16 l259 2 33 -29 c31 -27 34 -35 37 -99 3 -50 0 -79 -11 -100 -30
-57 -26 -57 -308 -54 -278 2 -299 -1 -314 -48 -7 -24 18 -77 44 -91 11 -5 73
-10 139 -10 133 0 152 -8 152 -68 0 -45 -21 -52 -154 -52 -63 0 -121 -3 -130
-6 -25 -10 -40 -79 -24 -112 l13 -27 270 -5 c149 -3 278 -9 288 -14 29 -14 37
-41 37 -125 0 -84 8 -118 35 -144 32 -33 111 -11 132 36 18 38 7 357 -13 377
-10 11 -47 16 -135 20 -129 6 -139 10 -139 61 0 50 24 59 159 59 l123 0 30 30
c33 34 34 50 2 130 -15 36 -18 76 -19 200 -1 85 -5 162 -9 171 -18 40 -47 44
-401 46 -223 2 -346 -1 -358 -8z"/>
<path d="M7022 2963 c-11 -10 -24 -34 -29 -53 -4 -19 -6 -173 -3 -342 4 -270
7 -309 22 -324 15 -15 47 -17 305 -15 240 2 291 0 308 -13 18 -13 20 -29 25
-176 l5 -162 28 -24 c34 -29 80 -31 106 -5 39 39 42 82 39 583 l-3 483 -23 33
c-30 41 -77 44 -119 8 l-28 -24 -5 -262 c-5 -244 -6 -263 -24 -276 -16 -11
-63 -14 -223 -14 -263 0 -243 -17 -243 209 0 176 9 226 41 236 10 3 76 5 146
3 150 -3 188 7 198 53 9 41 -16 75 -62 88 -21 6 -129 11 -239 11 -178 0 -204
-2 -222 -17z"/>
<path d="M8139 2970 c-23 -14 -42 -65 -35 -95 8 -30 37 -47 83 -47 69 0 86
-48 44 -123 -10 -16 -25 -54 -35 -84 -9 -29 -26 -65 -36 -80 -11 -14 -29 -52
-39 -84 -11 -32 -30 -71 -42 -88 -26 -37 -20 -54 38 -102 29 -24 49 -33 63
-30 34 9 79 70 96 131 9 31 23 68 33 82 9 13 28 51 42 85 21 49 30 60 49 60
20 0 28 -10 48 -60 13 -33 30 -67 38 -76 9 -9 24 -45 34 -80 12 -39 31 -75 52
-96 54 -57 62 -58 107 -17 22 20 48 34 58 32 36 -7 43 -45 42 -227 -1 -158 1
-176 18 -200 43 -56 112 -52 144 9 18 32 19 66 19 531 l0 496 -23 34 c-33 49
-78 52 -123 8 l-34 -33 0 -259 c0 -159 -4 -266 -10 -278 -14 -26 -56 -25 -70
2 -7 11 -18 44 -27 72 -8 29 -28 77 -43 107 -15 30 -30 68 -34 84 -4 16 -18
45 -32 65 -26 38 -32 89 -12 109 7 7 31 12 53 12 50 0 75 23 75 69 0 21 -9 41
-25 56 l-24 25 -238 0 c-131 0 -245 -5 -254 -10z"/>
<path d="M9270 2960 c-11 -11 -22 -30 -25 -42 -3 -13 -5 -133 -3 -267 3 -227
4 -244 22 -257 11 -8 31 -14 45 -14 14 0 43 -5 64 -11 42 -11 46 -26 22 -82
-15 -37 -11 -59 17 -99 10 -14 8 -24 -10 -56 -18 -33 -22 -55 -22 -126 0 -95
16 -148 49 -165 14 -8 114 -11 303 -10 l282 1 28 30 c34 36 36 77 8 117 l-21
27 25 50 c23 47 24 54 15 144 -11 111 -11 94 -1 420 4 140 4 268 0 284 -10 39
-46 76 -75 76 -12 0 -41 -16 -63 -36 -39 -35 -40 -38 -40 -103 0 -110 -41
-142 -99 -76 -17 20 -31 37 -31 38 0 2 11 18 25 37 30 41 32 79 4 114 l-20 26
-240 0 c-225 0 -240 -1 -259 -20z m295 -150 c4 -6 -8 -10 -29 -10 -20 0 -36 5
-36 10 0 6 13 10 29 10 17 0 33 -4 36 -10z m104 -205 c45 -14 81 -30 81 -35 0
-15 -71 -31 -165 -37 -111 -6 -159 4 -163 36 -5 29 7 41 50 51 61 15 116 10
197 -15z m171 -35 c0 -5 -12 -10 -26 -10 -14 0 -23 4 -19 10 3 6 15 10 26 10
10 0 19 -4 19 -10z m-10 -400 c0 -5 -9 -10 -20 -10 -11 0 -20 5 -20 10 0 6 9
10 20 10 11 0 20 -4 20 -10z"/>
<path d="M11507 2968 c-32 -25 -37 -68 -37 -319 0 -323 3 -329 142 -311 35 5
119 6 186 3 142 -7 155 -15 168 -98 14 -95 88 -123 150 -57 19 19 34 40 34 45
0 17 19 9 25 -10 10 -33 53 -71 79 -71 37 0 72 19 85 47 7 16 11 140 11 377 0
397 1 391 -73 403 -35 5 -41 2 -78 -37 l-41 -43 -30 37 c-26 32 -35 36 -74 36
-37 0 -51 -6 -75 -30 -29 -28 -29 -31 -23 -94 5 -52 3 -71 -10 -91 -9 -14 -21
-25 -26 -25 -6 0 -28 16 -50 36 l-40 36 36 40 c40 45 40 74 2 116 -21 21 -28
22 -183 22 -113 0 -166 -4 -178 -12z m663 -382 c0 -160 -4 -267 -10 -271 -6
-4 -10 84 -12 237 -3 262 -2 298 13 298 5 0 9 -107 9 -264z m-385 224 c4 -6
-10 -10 -34 -10 -23 0 -41 5 -41 10 0 6 15 10 34 10 19 0 38 -4 41 -10z m18
-202 c12 -6 46 -14 77 -17 48 -5 56 -9 64 -33 6 -18 6 -38 0 -55 l-10 -28
-123 2 c-137 2 -154 9 -165 65 -4 20 -1 39 9 55 13 19 24 23 71 23 30 0 65 -5
77 -12z"/>
<path d="M2086 2939 c-14 -11 -26 -28 -26 -38 0 -44 91 -78 123 -46 22 22 22
68 -1 88 -25 23 -64 21 -96 -4z"/>
<path d="M3811 2941 c-6 -11 -11 -40 -11 -64 0 -115 -46 -141 -90 -50 -42 86
-90 125 -125 99 -8 -6 -22 -35 -29 -64 -9 -34 -25 -63 -45 -81 -23 -21 -31
-38 -31 -63 0 -34 23 -78 41 -78 6 0 21 25 35 55 14 30 29 57 34 60 10 6 60
-15 60 -26 0 -4 13 -15 28 -26 16 -10 48 -39 71 -66 37 -40 45 -55 50 -104 7
-63 28 -86 59 -67 15 10 17 29 18 145 0 77 6 150 13 171 20 59 18 114 -5 145
-26 35 -59 41 -73 14z"/>
<path d="M10430 2950 c-58 -14 -78 -61 -40 -95 18 -17 44 -18 290 -19 296 -1
293 -1 306 -63 5 -24 1 -36 -15 -52 -20 -20 -30 -21 -266 -21 -203 0 -251 -3
-276 -16 -60 -31 -15 -90 79 -101 59 -7 71 -17 79 -65 7 -49 -15 -68 -80 -68
-61 0 -117 -14 -129 -32 -13 -21 -9 -83 6 -104 14 -18 30 -19 416 -19 386 0
402 1 416 19 25 34 18 91 -16 129 l-30 35 0 205 c0 226 -5 250 -53 267 -36 12
-634 12 -687 0z m542 -390 c21 -26 24 -83 5 -98 -20 -17 -181 -19 -201 -3 -23
19 -20 73 6 106 21 27 24 27 96 23 63 -4 79 -9 94 -28z"/>
<path d="M2544 2905 c-9 -23 3 -45 24 -45 29 0 48 26 32 45 -7 8 -21 15 -32
15 -10 0 -21 -7 -24 -15z"/>
<path d="M345 2653 c-45 -24 -165 -149 -165 -172 0 -39 21 -74 81 -133 51 -52
66 -61 104 -65 48 -6 38 -14 145 106 30 33 60 61 67 61 18 0 148 -116 178
-160 25 -36 26 -40 11 -68 -9 -17 -41 -52 -72 -79 -96 -82 -105 -123 -41 -176
23 -19 65 -58 92 -86 28 -28 53 -51 57 -51 13 0 116 81 122 96 3 7 28 28 56
45 27 17 50 36 50 43 0 14 -49 88 -64 98 -28 17 -136 128 -136 140 0 7 33 45
73 83 119 113 124 139 43 219 -29 30 -64 60 -77 67 -13 7 -30 20 -37 31 -7 10
-19 18 -26 18 -7 0 -48 -34 -90 -76 -66 -66 -82 -77 -119 -81 -46 -5 -46 -6
-145 100 -30 31 -59 57 -65 57 -7 -1 -25 -8 -42 -17z"/>
<path d="M4131 2607 c-27 -30 -29 -95 -2 -128 17 -21 28 -23 140 -27 100 -4
125 -2 146 12 27 18 32 40 13 53 -7 4 -56 10 -108 13 l-95 5 -20 38 c-28 53
-47 62 -74 34z"/>
<path d="M1210 2613 c-8 -4 -39 -30 -67 -59 -73 -74 -72 -90 16 -176 80 -78
117 -93 140 -57 9 13 31 38 49 54 79 71 80 112 3 188 -49 48 -64 57 -92 56
-19 0 -41 -3 -49 -6z"/>
<path d="M1644 2571 c-10 -16 -28 -35 -41 -42 -50 -27 -38 -97 26 -149 19 -17
46 -30 59 -30 38 0 98 37 110 67 30 79 28 89 -40 143 -61 48 -90 51 -114 11z"/>
<path d="M2090 2543 c-49 -18 -62 -60 -35 -114 17 -32 49 -49 96 -49 26 0 33
6 49 43 25 54 25 68 -1 101 -16 20 -29 26 -57 25 -20 0 -44 -3 -52 -6z"/>
<path d="M2527 2522 c-24 -26 -21 -66 7 -99 l24 -28 29 21 c15 12 35 33 43 48
14 26 14 28 -13 52 -33 29 -68 31 -90 6z"/>
<path d="M3022 2501 c-20 -12 -10 -46 13 -46 14 0 20 7 20 24 0 27 -13 35 -33
22z"/>
<path d="M4114 2322 c-17 -15 -38 -31 -48 -37 -24 -14 -38 -81 -26 -126 11
-39 88 -119 115 -119 30 0 92 39 119 74 45 60 80 39 79 -47 -1 -58 17 -97 46
-97 35 0 41 22 40 161 -1 137 -11 179 -44 179 -13 0 -37 -26 -61 -66 -10 -17
-14 -15 -51 21 -56 55 -98 85 -120 85 -10 0 -32 -13 -49 -28z m75 -98 c39 -50
20 -99 -36 -92 -26 3 -28 6 -27 45 1 39 17 73 34 73 5 0 18 -12 29 -26z"/>
<path d="M3499 2293 c-10 -11 -14 -45 -14 -111 l0 -94 40 -33 39 -33 -13 -64
c-13 -68 -8 -110 15 -129 9 -7 61 -12 142 -13 119 -1 128 0 150 21 25 25 27
53 11 152 -9 50 -9 93 -1 161 9 77 9 98 -3 127 l-15 36 -83 -7 c-45 -4 -102
-12 -127 -18 -38 -9 -51 -8 -77 6 -40 20 -47 20 -64 -1z m116 -123 c0 -7 -6
-15 -12 -17 -8 -3 -13 4 -13 17 0 13 5 20 13 18 6 -3 12 -11 12 -18z m169 -76
c19 -50 3 -90 -45 -114 -48 -25 -61 -25 -83 -1 -26 28 -16 54 24 67 18 6 43
23 54 37 24 30 41 34 50 11z"/>
<path d="M1210 2211 c-14 -4 -34 -21 -45 -38 -11 -16 -32 -37 -47 -46 -27 -15
-68 -83 -68 -112 0 -8 18 -28 39 -43 22 -16 52 -43 67 -61 14 -17 39 -38 55
-47 47 -24 37 -48 -61 -149 -49 -51 -90 -98 -90 -105 0 -25 34 -74 91 -131 48
-49 67 -62 99 -66 39 -5 42 -3 98 55 31 34 64 71 73 84 12 16 25 22 53 21 32
-1 45 -10 98 -65 33 -34 69 -80 80 -102 l20 -38 -86 -88 c-114 -116 -114 -119
2 -227 48 -46 91 -83 95 -83 20 0 76 36 114 73 24 23 54 53 69 65 23 20 26 30
21 63 -4 33 -17 51 -71 102 -36 34 -77 71 -91 82 l-25 20 85 88 c79 81 105
118 105 150 0 28 -171 187 -201 187 -7 0 -48 -36 -90 -80 -72 -76 -78 -80
-119 -80 -39 0 -48 5 -104 63 -67 67 -91 114 -77 150 5 12 41 52 80 89 39 37
71 72 71 77 0 23 -48 90 -103 144 -60 59 -77 65 -137 48z"/>
<path d="M11628 2199 c-23 -23 -24 -29 -21 -157 2 -145 14 -182 62 -201 16 -7
144 -10 334 -8 l309 2 24 28 c23 27 31 71 16 93 -20 30 -55 34 -291 34 l-241
0 -16 25 c-11 17 -17 49 -18 95 -2 84 -14 101 -85 108 -42 4 -53 1 -73 -19z"/>
<path d="M4910 2199 c-13 -5 -28 -15 -32 -22 -4 -7 -8 -68 -8 -137 0 -106 3
-130 20 -157 10 -17 27 -36 37 -41 10 -5 150 -10 312 -10 l293 -1 24 26 c35
38 36 87 2 116 -20 17 -42 18 -240 16 -261 -3 -251 -7 -256 106 -3 56 -9 78
-23 91 -22 20 -95 28 -129 13z"/>
<path d="M1611 2144 c-45 -46 -54 -61 -59 -100 -5 -45 -4 -47 54 -105 38 -38
66 -59 82 -59 31 0 76 24 99 53 10 13 30 31 46 41 21 14 27 26 27 54 0 30 -9
44 -71 103 -89 87 -104 88 -178 13z"/>
<path d="M2100 2142 c-78 -30 -106 -124 -52 -174 80 -73 106 -75 171 -8 40 40
47 54 43 76 -5 27 -90 124 -108 123 -5 0 -29 -8 -54 -17z"/>
<path d="M10463 2136 c-28 -24 -28 -26 -27 -129 2 -99 12 -142 38 -159 6 -4
156 -8 333 -8 l322 0 20 26 c12 15 21 39 21 54 0 52 -12 55 -281 60 -157 3
-252 9 -259 16 -6 6 -13 35 -17 64 -4 37 -14 61 -29 77 -31 31 -84 31 -121 -1z"/>
<path d="M2537 2118 c-24 -18 -49 -96 -38 -117 21 -38 49 -54 87 -48 52 9 84
33 84 63 0 41 -29 84 -65 100 -42 17 -47 17 -68 2z"/>
<path d="M12617 2042 c-10 -10 -17 -29 -17 -41 0 -29 25 -77 45 -85 29 -11
763 -8 785 4 23 12 40 66 30 95 -15 43 -36 45 -441 45 -361 0 -387 -1 -402
-18z"/>
<path d="M4129 1963 c-9 -9 -13 -36 -12 -67 2 -76 20 -86 147 -85 118 1 150 8
155 34 6 32 -27 45 -109 45 -82 0 -91 4 -120 63 -15 31 -41 35 -61 10z"/>
<path d="M2114 1747 c-42 -16 -158 -133 -148 -149 37 -61 155 -168 186 -168
13 0 107 95 131 132 9 15 17 36 17 46 0 18 -130 153 -147 151 -4 0 -22 -6 -39
-12z"/>
<path d="M7256 1515 c-27 -13 -57 -25 -66 -28 -10 -3 -26 -20 -35 -38 -10 -19
-29 -46 -43 -62 -23 -24 -26 -36 -26 -97 0 -59 3 -73 24 -95 13 -14 33 -41 44
-61 17 -30 34 -41 86 -61 97 -37 104 -37 167 -12 83 34 103 48 103 75 0 33
-33 48 -89 39 -138 -23 -170 -12 -206 73 -17 41 -17 43 0 85 31 71 47 82 113
79 191 -9 187 -9 190 16 5 33 -14 51 -86 84 -76 33 -111 34 -176 3z"/>
<path d="M10209 1505 c-66 -54 -79 -73 -79 -116 0 -30 5 -42 26 -55 14 -9 31
-29 39 -44 9 -17 28 -31 53 -38 22 -7 46 -19 53 -28 11 -14 9 -20 -15 -41 -30
-26 -44 -26 -104 -2 -28 12 -34 12 -43 -1 -5 -8 -8 -28 -7 -44 3 -24 13 -34
66 -62 61 -33 64 -33 100 -19 19 9 62 40 94 71 46 44 64 55 85 52 20 -2 29
-10 34 -31 11 -40 23 -52 86 -83 51 -25 59 -26 91 -14 74 26 122 64 153 118
30 53 30 54 14 101 -10 30 -33 64 -65 96 -44 43 -55 49 -102 53 -79 6 -136
-12 -156 -51 -25 -47 -96 -117 -120 -117 -12 0 -28 13 -41 35 -11 19 -33 40
-48 45 -43 15 -58 26 -61 43 -4 18 14 27 86 47 36 9 43 15 40 33 -3 23 -68 73
-109 82 -20 5 -35 -2 -70 -30z m495 -189 c25 -10 37 -24 46 -51 20 -60 8 -82
-55 -100 -50 -15 -56 -15 -79 0 -31 21 -40 46 -31 93 13 69 50 87 119 58z"/>
<path d="M4964 1520 c-49 -19 -54 -42 -54 -233 0 -176 0 -178 25 -202 22 -23
32 -25 107 -24 114 1 178 23 200 69 10 20 30 40 47 47 43 18 54 45 49 121 -4
60 -7 67 -40 96 -20 17 -43 45 -52 62 -13 27 -27 35 -85 53 -71 22 -159 26
-197 11z m187 -119 c13 -10 35 -39 48 -64 l25 -45 -19 -42 c-27 -59 -67 -90
-118 -90 -50 0 -63 7 -76 41 -13 36 -7 185 9 204 18 22 101 20 131 -4z"/>
<path d="M6771 1491 c-16 -28 -16 -378 -1 -396 16 -19 44 -19 60 0 16 19 17
362 1 393 -14 27 -47 29 -60 3z"/>
<path d="M9486 1478 c-33 -78 -40 -116 -25 -134 9 -11 16 -54 19 -130 4 -90 9
-117 23 -131 16 -17 18 -16 39 5 20 20 22 31 21 119 l-1 97 35 34 c35 32 35
33 17 53 -10 12 -30 42 -44 67 -32 61 -64 68 -84 20z"/>
<path d="M11959 1483 c-80 -87 -91 -135 -37 -166 l31 -18 -6 -90 c-7 -86 -6
-91 18 -114 50 -51 77 -5 68 114 -6 88 9 131 47 131 20 0 50 -35 50 -59 0 -8
14 -36 32 -63 28 -46 31 -58 36 -151 3 -76 8 -105 19 -114 23 -18 49 0 63 44
7 21 25 61 40 88 16 28 31 72 35 98 5 33 18 61 41 89 50 59 58 109 22 132 -25
15 -48 -1 -73 -51 -23 -48 -74 -93 -103 -93 -26 0 -30 6 -42 71 -6 29 -14 57
-19 62 -5 5 -33 10 -63 11 l-53 1 -25 50 c-14 27 -32 51 -40 53 -9 1 -27 -10
-41 -25z"/>
<path d="M5985 1478 c-36 -165 -43 -349 -15 -383 17 -20 47 -19 59 3 5 9 10
76 12 147 2 118 -1 147 -27 238 -7 24 -23 21 -29 -5z"/>
<path d="M6143 1488 c-13 -18 -43 -100 -43 -120 0 -9 7 -29 15 -44 10 -20 15
-59 15 -119 0 -92 8 -115 40 -115 38 1 45 17 45 112 l0 93 33 10 c28 8 32 13
32 42 0 86 -100 189 -137 141z"/>
<path d="M8453 1463 c-9 -21 -16 -58 -15 -83 4 -144 15 -267 24 -277 6 -7 21
-13 33 -13 39 0 47 22 40 107 -6 84 -5 89 38 116 43 28 35 85 -23 151 -44 49
-75 49 -97 -1z"/>
<path d="M11340 1438 c-18 -83 -25 -310 -11 -337 16 -30 52 -24 69 12 10 21
11 59 4 181 -9 143 -20 196 -42 196 -4 0 -14 -24 -20 -52z"/>
<path d="M5422 1443 c-13 -27 -33 -152 -31 -198 1 -22 -2 -57 -6 -78 -6 -29
-4 -42 10 -57 30 -33 54 -25 75 25 17 39 23 45 49 45 25 0 32 -5 37 -27 3 -16
12 -47 20 -70 11 -31 12 -47 5 -62 -15 -26 -14 -56 2 -69 6 -6 53 -13 104 -17
l92 -7 48 45 48 45 6 84 c4 45 8 123 8 171 1 81 -1 90 -24 112 -20 21 -35 25
-92 27 -137 5 -166 1 -190 -27 -13 -15 -23 -32 -23 -39 0 -23 -37 -48 -60 -41
-26 8 -50 61 -50 109 0 40 -15 55 -28 29z m345 -121 c33 -21 44 -119 15 -145
-30 -27 -92 -31 -130 -7 -40 24 -46 39 -38 86 10 53 37 74 94 74 26 0 52 -4
59 -8z m-8 -251 c20 -13 6 -41 -21 -41 -33 0 -68 11 -68 20 0 8 45 28 65 29 6
0 16 -3 24 -8z"/>
<path d="M6413 1409 c-23 -7 -39 -21 -53 -48 -14 -28 -28 -41 -49 -46 -25 -5
-29 -11 -34 -53 -6 -53 4 -78 33 -87 11 -4 29 -24 40 -45 15 -30 33 -44 77
-65 55 -25 60 -25 91 -11 18 9 53 16 77 16 51 0 84 25 86 63 3 79 -4 234 -12
248 -4 9 -19 19 -31 22 -49 12 -195 16 -225 6z m126 -90 c35 -13 51 -41 51
-93 0 -39 -11 -50 -67 -63 -35 -9 -47 -8 -71 7 -40 25 -45 34 -37 81 12 71 52
93 124 68z"/>
<path d="M7713 1405 c-20 -8 -45 -33 -63 -61 -36 -57 -39 -113 -12 -189 16
-45 24 -53 77 -82 33 -17 69 -32 80 -32 11 0 47 14 80 32 74 40 100 84 100
169 -1 104 -76 178 -180 178 -27 -1 -65 -7 -82 -15z m154 -101 c19 -26 17
-103 -4 -126 -12 -13 -30 -18 -69 -18 -46 0 -56 4 -70 25 -20 31 -11 120 14
135 26 16 113 6 129 -16z"/>
<path d="M8145 1413 c-73 -5 -90 -19 -104 -84 -28 -128 7 -283 56 -251 22 15
35 55 29 94 -9 53 9 114 39 134 14 9 39 14 61 12 46 -4 52 -17 53 -134 1 -65
5 -84 19 -97 47 -42 62 -8 62 138 0 110 -1 117 -25 141 -29 28 -86 55 -112 52
-10 -1 -45 -3 -78 -5z"/>
<path d="M9173 1411 c-40 -3 -78 -12 -85 -19 -9 -9 -13 -50 -13 -146 0 -140 7
-166 46 -166 27 0 39 39 39 129 0 99 11 116 70 108 62 -8 71 -22 77 -118 7
-98 15 -119 47 -119 38 0 49 43 41 152 -7 92 -8 93 -50 135 -47 48 -67 53
-172 44z"/>
<path d="M11005 1406 c-43 -19 -81 -68 -101 -129 -16 -52 -16 -52 12 -111 25
-52 37 -63 89 -92 33 -18 67 -33 76 -34 27 0 146 58 153 75 3 9 1 25 -4 36
-10 18 -18 19 -103 13 -85 -6 -93 -5 -111 15 -15 16 -18 31 -14 71 3 28 10 56
16 62 6 6 38 11 71 12 50 1 63 -3 85 -23 19 -18 29 -22 37 -14 15 15 15 78 0
97 -29 34 -149 47 -206 22z"/>
<path d="M11615 1411 c-17 -4 -54 -31 -84 -59 -48 -46 -54 -57 -58 -99 -6 -69
18 -109 101 -165 78 -54 99 -57 153 -26 64 36 73 48 73 94 0 31 7 51 25 72 31
36 32 63 4 88 -12 10 -27 31 -35 46 -20 38 -116 65 -179 49z m85 -106 c16 -20
7 -102 -13 -122 -14 -14 -18 -12 -36 18 -28 45 -27 84 1 103 28 20 32 20 48 1z"/>
<path d="M8728 1399 c-18 -7 -41 -35 -72 -88 -25 -43 -46 -82 -46 -88 0 -5 12
-20 26 -34 15 -13 33 -39 41 -57 10 -24 26 -38 57 -52 24 -10 47 -23 50 -29
18 -28 100 5 152 61 33 35 64 116 64 168 0 24 -11 41 -52 80 l-53 50 -70 -1
c-38 0 -82 -5 -97 -10z m110 -95 c33 -23 31 -86 -5 -114 -14 -11 -30 -17 -34
-13 -13 15 -26 99 -18 121 10 26 26 28 57 6z"/>
<path d="M9699 1368 c-22 -24 -39 -49 -39 -56 0 -7 18 -32 40 -54 54 -56 51
-77 -11 -92 -15 -3 -30 -13 -33 -22 -7 -17 19 -54 38 -54 5 0 23 -12 38 -27
l28 -27 42 24 c70 38 78 48 78 101 0 62 -6 77 -41 95 -36 18 -38 48 -5 69 58
38 29 85 -51 85 -40 0 -49 -5 -84 -42z"/>
</g>
</svg>
