<?xml version="1.0" standalone="no"?>
<!DOCTYPE svg PUBLIC "-//W3C//DTD SVG 20010904//EN"
 "http://www.w3.org/TR/2001/REC-SVG-20010904/DTD/svg10.dtd">
<svg version="1.0" xmlns="http://www.w3.org/2000/svg"
 width="204.000000pt" height="142.000000pt" viewBox="0 0 204.000000 142.000000"
 preserveAspectRatio="xMidYMid meet">

<g transform="translate(0.000000,142.000000) scale(0.100000,-0.100000)"
fill="#000000" stroke="none">
<path d="M1699 1281 c-13 -10 -39 -22 -56 -25 -52 -12 -36 -42 19 -38 22 2 28
-2 28 -18 0 -11 5 -20 11 -20 5 0 7 5 4 10 -4 6 6 10 23 10 16 0 37 9 47 20
21 23 11 27 -11 5 -18 -17 -50 -20 -59 -5 -3 6 -22 10 -41 10 -21 0 -33 4 -29
10 3 6 12 10 20 10 8 0 31 11 51 25 20 14 32 25 27 25 -6 0 -21 -8 -34 -19z"/>
<path d="M1775 1274 c11 -8 28 -21 38 -29 9 -8 22 -15 28 -15 6 0 7 -5 2 -12
-4 -7 -8 -19 -9 -26 -1 -7 -8 -20 -15 -28 -11 -14 -13 -14 -21 0 -5 9 -6 21
-3 26 7 12 -3 12 -30 0 -17 -7 -17 -9 -2 -9 9 -1 16 -4 15 -8 -2 -11 12 -65
22 -84 8 -16 -5 -49 -20 -49 -6 0 -10 11 -10 24 0 21 -6 26 -41 33 -26 5 -47
17 -57 31 -13 20 -13 22 1 17 8 -4 18 -2 21 3 3 6 -1 12 -9 16 -8 3 -15 16
-16 28 0 15 -3 18 -6 8 -3 -8 -10 -18 -16 -21 -6 -4 -2 -22 9 -45 16 -33 26
-41 62 -48 27 -7 42 -15 42 -25 0 -42 -165 -196 -196 -184 -8 3 -13 -2 -12
-14 0 -10 -1 -25 -3 -33 -3 -11 5 -16 29 -18 18 -2 32 1 32 7 0 6 7 11 15 11
8 0 38 18 67 40 29 21 53 38 55 36 1 -1 5 -34 9 -72 3 -38 8 -71 10 -73 1 -2
-9 -26 -23 -53 -27 -52 -47 -175 -32 -192 17 -18 10 -87 -12 -117 -11 -16 -16
-29 -10 -29 18 0 41 57 41 100 0 32 3 40 19 40 18 0 18 -2 -2 -68 -23 -75 -31
-84 -69 -76 -33 7 -47 -13 -16 -25 31 -11 72 2 76 25 2 10 12 47 23 81 17 52
23 61 37 53 9 -5 25 -11 35 -14 23 -7 23 -66 0 -109 -9 -18 -16 -35 -15 -39 1
-4 -6 -5 -16 -1 -14 5 -15 3 -5 -7 18 -19 77 0 81 25 10 73 26 134 34 129 12
-8 88 45 88 61 0 6 -9 20 -20 30 -16 15 -20 31 -20 85 0 54 4 70 20 85 26 24
25 28 -10 63 -26 27 -30 38 -30 89 -1 75 -40 148 -95 177 -48 25 -52 39 -21
77 14 17 26 34 27 37 0 4 2 16 5 27 2 11 2 31 -1 43 -5 20 -8 22 -20 12 -12
-10 -20 -9 -40 4 -31 20 -47 21 -20 0z m46 -227 c-10 -9 -11 -8 -5 6 3 10 9
15 12 12 3 -3 0 -11 -7 -18z m51 -4 c9 -10 26 -38 38 -62 18 -36 21 -55 17
-100 -6 -58 -23 -86 -46 -72 -10 7 -11 13 -2 29 16 29 14 88 -4 122 -21 41
-27 38 -9 -5 16 -39 18 -83 4 -105 -16 -26 -42 53 -36 113 3 29 5 62 5 75 1
26 12 28 33 5z m-72 -32 c5 -11 10 -33 10 -49 0 -16 7 -49 15 -72 18 -51 18
-50 2 -50 -7 0 -21 16 -30 35 -9 19 -22 35 -28 35 -16 0 -5 93 11 98 9 3 9 7
-1 13 -10 6 -10 9 -2 9 7 0 17 -9 23 -19z m-53 -19 c-18 -19 -23 -37 -9 -28 4
2 8 -5 8 -16 0 -12 -21 -36 -58 -64 -54 -41 -58 -42 -68 -24 -8 14 -7 21 4 27
20 11 77 65 106 101 14 16 27 28 29 26 2 -2 -3 -12 -12 -22z m58 -163 c4 -18
0 -33 -14 -50 l-20 -24 -1 70 c0 63 1 68 14 49 8 -11 18 -32 21 -45z m-200 20
c0 -7 -8 -15 -17 -17 -18 -3 -25 18 -11 32 10 10 28 1 28 -15z m246 -31 c1 -7
1 -17 0 -22 -1 -6 0 -20 4 -34 4 -17 12 -23 28 -20 12 1 33 -5 46 -14 21 -15
23 -22 17 -65 -5 -41 -2 -54 19 -85 l25 -37 -31 -22 c-24 -17 -44 -22 -92 -21
-34 1 -63 6 -65 11 -2 6 -21 11 -43 11 l-39 0 0 48 c0 72 17 116 70 186 26 36
46 67 42 70 -3 3 0 6 6 6 7 0 13 -6 13 -12z m129 -49 c0 -14 -31 -31 -45 -25
-23 8 -29 34 -16 64 l12 26 24 -30 c13 -16 24 -32 25 -35z m-90 5 c0 -8 -4
-14 -9 -14 -11 0 -22 26 -14 34 9 9 23 -3 23 -20z m-5 -313 c-4 -9 -9 -34 -12
-56 -6 -38 -17 -54 -37 -55 -4 0 -1 12 9 26 11 17 16 41 13 68 -3 37 -1 42 15
38 12 -3 16 -10 12 -21z"/>
<path d="M547 1173 c8 -12 12 -23 8 -23 -3 0 1 -8 10 -17 11 -11 35 -17 70
-17 58 -1 90 -20 92 -56 2 -18 -4 -20 -48 -20 -52 0 -59 8 -33 35 25 24 12 28
-51 15 -31 -6 -63 -9 -71 -6 -20 8 -18 46 4 47 11 1 8 4 -8 8 -16 4 -30 2 -38
-6 -8 -8 -23 -11 -38 -7 -30 8 -30 4 -2 -27 13 -15 19 -18 15 -7 -3 10 0 19 9
22 27 10 31 7 38 -25 5 -24 10 -30 23 -25 32 13 103 19 103 9 0 -5 -7 -18 -15
-29 -11 -14 -14 -15 -15 -4 0 10 -3 11 -8 4 -18 -27 -47 -33 -72 -13 -14 10
-34 19 -45 19 l-20 1 20 10 c17 8 17 9 -5 4 -14 -2 -42 -5 -62 -5 -22 0 -38
-5 -38 -11 0 -8 12 -10 35 -6 43 7 91 -6 121 -34 14 -13 24 -17 29 -10 3 6 11
11 18 11 8 0 8 -3 -1 -12 -16 -16 -15 -28 3 -28 12 0 13 -4 3 -19 -11 -18 -12
-18 -59 1 l-48 20 22 20 c12 11 15 17 7 14 -8 -3 -23 -9 -33 -12 -10 -4 -16
-13 -13 -20 8 -21 -54 -18 -70 4 -20 26 -17 32 15 32 17 0 32 4 35 9 5 8 -73
3 -83 -5 -2 -2 6 -18 18 -37 20 -33 22 -34 66 -27 34 5 55 2 87 -12 43 -19 43
-19 60 2 14 17 26 20 72 18 35 -2 56 -7 56 -15 0 -20 19 -25 53 -14 17 6 46
12 62 15 17 2 32 5 34 5 7 1 -33 30 -41 31 -4 0 -5 -6 -2 -13 3 -8 -10 -17
-38 -24 -46 -12 -58 -10 -58 13 0 8 -5 14 -11 14 -6 0 -9 7 -5 15 3 8 1 15 -4
15 -6 0 -10 -9 -10 -20 0 -18 -4 -20 -37 -15 -75 12 -87 16 -74 24 6 4 11 14
9 22 -2 11 14 14 79 14 78 0 82 1 77 21 -4 17 2 23 36 37 30 11 48 13 66 7 24
-9 24 -11 9 -40 -14 -26 -18 -28 -41 -19 -15 5 -29 8 -31 5 -2 -2 10 -9 28
-15 27 -9 34 -8 45 7 7 9 14 20 14 24 0 4 12 0 28 -8 15 -7 33 -14 41 -14 9 0
4 -9 -12 -24 -18 -16 -34 -22 -54 -20 l-28 4 27 -11 c24 -9 32 -7 63 18 19 15
35 31 35 34 0 3 -19 9 -42 15 -32 7 -42 13 -40 26 2 12 -6 20 -23 24 -14 3
-25 9 -25 13 0 10 -130 64 -137 57 -4 -3 -13 0 -22 8 -9 8 -46 16 -83 18 l-66
5 15 -24z m127 -8 c10 -8 22 -12 26 -10 4 3 32 -6 61 -19 l53 -23 -32 -17
c-30 -15 -34 -15 -59 1 -27 18 -27 18 -5 21 12 2 22 8 22 13 0 5 -2 9 -4 9 -2
0 -12 3 -22 7 -11 4 -15 3 -11 -4 8 -12 -17 -25 -27 -15 -4 3 -25 5 -47 3 -38
-2 -68 15 -69 42 0 13 95 7 114 -8z"/>
<path d="M1705 1130 c-18 -20 -17 -20 8 -20 20 0 27 5 27 20 0 11 -4 20 -8 20
-5 0 -17 -9 -27 -20z"/>
<path d="M303 978 c-31 -15 -29 -24 7 -43 23 -12 35 -13 48 -5 15 10 15 10 -3
6 -11 -3 -29 1 -39 9 -20 15 -20 15 0 30 22 17 18 18 -13 3z"/>
<path d="M940 986 c0 -3 25 -13 55 -22 30 -10 55 -20 55 -23 -1 -3 -10 -17
-20 -30 -16 -18 -27 -22 -50 -18 -23 5 -33 2 -45 -16 -13 -19 -18 -20 -36 -9
-30 19 -35 8 -6 -11 23 -15 26 -14 47 8 18 20 27 22 47 14 14 -5 27 -8 28 -7
1 2 14 20 29 40 21 28 25 39 15 42 -8 2 -36 11 -63 20 -55 18 -56 18 -56 12z"/>
<path d="M905 934 c22 -7 47 -18 56 -23 9 -6 20 -7 23 -4 7 8 -81 43 -104 42
-8 0 3 -7 25 -15z"/>
<path d="M418 914 c-16 -8 -28 -16 -28 -18 0 -2 19 -11 43 -19 23 -8 50 -18
59 -22 11 -4 20 1 28 17 12 22 11 22 -5 6 -16 -15 -20 -15 -54 0 -20 9 -38 18
-40 19 -3 2 4 10 15 18 24 19 17 18 -18 -1z"/>
<path d="M603 916 c4 -10 7 -26 7 -36 0 -17 7 -18 73 -15 47 3 72 8 72 16 0 7
-6 14 -14 17 -8 3 -11 0 -7 -7 5 -7 -3 -11 -22 -11 -16 0 -44 -3 -61 -6 -28
-6 -31 -4 -31 19 0 14 -5 29 -12 33 -8 5 -9 2 -5 -10z"/>
<path d="M321 882 c29 -31 39 -37 67 -33 17 2 32 6 32 10 0 4 -15 5 -34 3 -29
-3 -36 0 -52 27 -10 17 -25 31 -32 31 -9 0 -1 -15 19 -38z"/>
<path d="M794 885 c-4 -9 3 -23 17 -34 l23 -19 -34 -7 c-19 -3 -42 -9 -51 -11
-10 -3 -18 3 -21 14 -6 22 -35 25 -43 4 -4 -10 0 -13 15 -9 14 3 20 0 20 -10
0 -12 7 -14 33 -9 17 3 49 9 70 12 45 8 46 14 7 37 -39 24 -38 38 3 30 38 -7
34 1 -6 11 -20 5 -29 2 -33 -9z"/>
<path d="M238 883 c-22 -6 -23 -21 -1 -45 15 -17 14 -18 -34 -18 l-51 0 7 -33
c5 -18 13 -42 20 -54 10 -19 15 -21 38 -12 14 5 35 7 46 3 13 -4 17 -2 12 5
-5 8 1 10 18 6 14 -4 28 -2 31 4 7 11 -58 9 -106 -4 -24 -6 -29 -3 -38 21 -15
39 -6 54 34 54 41 0 50 10 32 36 -13 17 -11 20 12 31 27 11 14 15 -20 6z"/>
<path d="M569 863 c-5 -31 -4 -33 25 -34 l31 -1 -30 -8 c-28 -7 -27 -8 15 -10
l45 -3 -45 -7 -45 -7 46 -1 c38 -2 48 1 52 17 5 20 -15 31 -60 31 -16 0 -23 7
-25 28 -3 26 -4 26 -9 -5z"/>
<path d="M1070 861 c0 -6 18 -11 41 -11 38 0 41 -2 35 -22 -3 -13 -6 -26 -6
-30 0 -4 -10 -9 -22 -11 -21 -4 -21 -4 2 -6 22 -1 27 5 37 39 l10 40 -33 0
c-18 0 -39 3 -48 6 -9 3 -16 1 -16 -5z"/>
<path d="M456 851 c5 -5 20 -12 34 -15 l25 -7 -25 15 c-28 17 -50 21 -34 7z"/>
<path d="M977 848 l21 -13 -29 -32 c-25 -29 -32 -31 -54 -23 -45 17 -51 11
-10 -10 21 -11 39 -19 39 -17 1 1 16 21 35 45 18 24 31 45 30 46 -2 2 -15 7
-29 10 -24 7 -24 7 -3 -6z"/>
<path d="M295 815 c25 -22 49 -34 65 -34 l25 2 -26 4 c-15 2 -39 17 -55 34
-15 16 -33 29 -38 29 -6 0 7 -16 29 -35z"/>
<path d="M1033 838 c15 -12 15 -16 -8 -45 -16 -20 -31 -30 -40 -26 -8 3 -15 0
-15 -6 0 -24 37 -8 69 30 27 33 31 43 20 50 -8 5 -20 9 -28 9 -12 0 -11 -3 2
-12z"/>
<path d="M390 828 c-18 -8 -21 -12 -10 -16 8 -3 17 -8 20 -12 3 -4 21 -10 40
-13 25 -5 31 -4 20 3 -11 7 -7 10 20 11 34 1 34 2 -8 9 -24 3 -47 11 -50 17
-5 7 -15 7 -32 1z"/>
<path d="M496 785 l-49 -23 39 -18 c58 -26 154 -16 135 15 -7 10 -14 10 -40
-4 -21 -10 -43 -14 -62 -10 -42 10 -44 22 -4 35 19 6 35 16 35 21 0 5 -1 9 -2
8 -2 0 -25 -11 -52 -24z"/>
<path d="M802 786 c15 -11 13 -14 -20 -26 -20 -8 -39 -13 -42 -13 -3 1 -22 9
-42 17 -22 10 -38 12 -38 6 0 -5 6 -10 13 -10 6 0 25 -7 41 -15 27 -14 33 -14
83 7 52 21 53 22 31 35 -30 16 -48 16 -26 -1z"/>
<path d="M1050 785 c0 -3 17 -12 37 -20 l36 -15 -33 -35 c-32 -33 -34 -33 -61
-19 -38 19 -37 4 0 -17 29 -17 29 -17 72 27 23 24 41 45 38 48 -4 4 -79 36
-85 36 -2 0 -4 -2 -4 -5z"/>
<path d="M1160 784 c0 -4 8 -13 18 -20 16 -13 14 -16 -18 -43 -19 -16 -38 -27
-42 -25 -5 3 -8 0 -8 -5 0 -20 25 -10 68 27 l42 38 -30 17 c-16 10 -30 15 -30
11z"/>
<path d="M405 749 c-34 -21 -29 -25 10 -7 14 6 25 15 25 20 0 10 1 10 -35 -13z"/>
<path d="M760 723 c-25 -9 -40 -18 -35 -20 6 -1 33 6 60 17 60 23 39 25 -25 3z"/>
<path d="M350 722 c0 -5 21 -18 48 -29 38 -16 51 -17 70 -8 36 19 38 26 5 14
-29 -10 -51 -4 -115 29 -5 2 -8 -1 -8 -6z"/>
<path d="M255 696 c18 -27 15 -30 -52 -64 l-42 -21 -30 35 c-32 36 -42 34 -16
-2 16 -23 11 -34 -15 -34 -22 0 -64 -45 -55 -59 3 -7 34 -10 73 -9 l67 2 -62
3 c-35 2 -63 8 -63 12 0 21 42 44 80 44 22 0 43 4 46 8 10 18 39 8 71 -22 31
-31 33 -31 57 -15 33 21 48 20 79 -4 16 -13 28 -16 32 -10 3 6 24 20 47 31 22
11 37 23 34 26 -3 3 -25 -6 -49 -20 l-44 -26 -33 23 c-32 22 -34 22 -52 4 -25
-25 -40 -23 -72 11 -27 28 -27 29 -7 36 12 3 21 12 21 18 1 7 9 2 19 -10 16
-20 22 -21 55 -11 20 6 36 15 36 19 0 4 -15 3 -32 -2 -30 -9 -35 -7 -63 26
-34 40 -53 47 -30 11z"/>
<path d="M795 710 c-14 -7 -8 -8 20 -3 22 3 42 7 44 9 9 8 -45 2 -64 -6z"/>
<path d="M922 694 l27 -28 -40 -17 c-38 -18 -40 -18 -76 4 -20 11 -33 15 -29
8 5 -7 26 -21 48 -31 l40 -17 -39 -7 c-84 -15 -102 -25 -105 -59 l-3 -32 -72
-3 c-65 -3 -73 -1 -73 15 0 12 -5 9 -15 -11 -20 -38 -9 -46 68 -46 42 0 59 4
63 15 4 8 12 15 19 15 14 0 25 22 25 49 0 12 15 20 58 30 57 12 60 12 97 -13
21 -14 33 -26 26 -26 -6 0 -29 -11 -50 -24 l-38 -25 -34 35 c-18 19 -37 34
-43 34 -6 0 8 -18 29 -40 22 -22 45 -38 52 -36 20 8 26 -13 12 -45 -12 -30
-14 -31 -71 -27 -32 2 -58 0 -58 -4 0 -9 130 -15 144 -6 8 6 8 8 -1 8 -9 0 -9
8 -2 29 10 29 11 29 42 16 18 -8 31 -19 29 -26 -1 -6 5 -22 13 -36 9 -14 15
-26 13 -27 -2 -1 -18 -13 -35 -25 l-33 -22 -10 27 c-6 15 -13 25 -15 22 -6 -6
15 -68 22 -68 3 0 18 11 34 25 20 16 39 23 57 21 15 -2 21 -1 15 1 -7 2 -13 9
-13 15 0 5 -9 21 -19 34 -18 23 -19 27 -4 53 l16 27 38 -20 c36 -20 37 -21 23
-48 -8 -15 -14 -37 -14 -50 1 -17 5 -13 15 16 7 21 18 43 24 49 17 17 13 24
-16 32 -16 4 -22 10 -15 12 15 6 16 43 1 43 -6 0 -13 -9 -16 -19 -3 -12 -11
-17 -19 -14 -8 3 -11 9 -8 14 3 5 1 9 -5 9 -5 0 -13 -9 -16 -20 -7 -23 -35
-26 -68 -8 l-22 12 25 8 c21 6 19 7 -7 3 -18 -2 -33 -2 -33 0 0 10 96 52 108
48 6 -3 12 1 12 7 0 7 9 9 23 5 20 -5 20 -5 4 6 -13 7 -22 8 -29 1 -10 -10
-49 -3 -86 17 -29 16 -17 50 24 67 19 8 34 18 34 22 0 4 -17 18 -38 31 l-37
23 27 -28z m-219 -205 c-8 -8 -22 -8 -50 -1 l-38 10 50 1 c36 1 46 -2 38 -10z"/>
<path d="M1298 710 c-15 -4 -29 -5 -32 -2 -13 12 -5 -22 8 -37 7 -9 16 -30 19
-48 5 -28 2 -35 -23 -53 -17 -12 -30 -18 -30 -13 0 4 -12 9 -28 9 l-27 2 25
-11 c14 -6 26 -12 28 -13 2 -1 -9 -14 -23 -29 -15 -14 -28 -25 -29 -23 0 2
-11 18 -24 36 -12 17 -18 32 -12 32 16 0 12 18 -5 22 -12 2 -10 9 9 33 23 28
26 29 41 14 16 -16 16 -17 -5 -24 -18 -6 -20 -9 -9 -16 22 -14 42 -11 35 6 -3
8 -1 15 4 15 6 0 10 5 10 10 0 6 -6 10 -13 10 -8 0 -22 9 -32 20 -20 23 -36
26 -32 8 1 -9 -12 -13 -46 -11 -26 1 -45 -2 -42 -7 8 -13 -21 -31 -72 -45 -26
-7 -38 -14 -26 -14 12 -1 34 4 49 9 29 11 47 4 25 -9 -9 -6 -6 -10 10 -14 28
-7 39 1 19 13 -8 6 -10 10 -5 10 6 0 17 -6 24 -12 11 -11 13 -10 9 2 -3 8 -15
16 -27 18 -22 3 -22 4 -4 17 10 8 33 15 51 15 l33 0 -21 -29 -20 -30 31 -35
c17 -20 26 -36 20 -36 -15 0 -14 -27 1 -32 6 -2 8 -10 4 -16 -5 -9 -11 -8 -23
3 -8 9 -18 13 -21 10 -4 -3 0 -10 8 -15 13 -8 12 -12 -5 -24 -29 -22 -5 -19
33 4 17 11 32 26 32 33 0 23 129 139 147 133 12 -5 -10 -31 -83 -101 -54 -52
-94 -95 -89 -95 6 0 44 34 85 76 41 42 85 80 97 85 20 7 22 13 17 56 -6 48
-24 104 -34 102 -3 0 -17 -4 -32 -9z m40 -30 c9 -15 10 -26 2 -40 -13 -24 -42
-28 -33 -5 3 9 -2 24 -11 34 -14 15 -14 20 -4 24 24 10 33 7 46 -13z"/>
<path d="M632 688 c-6 -13 -12 -28 -14 -34 -2 -8 -15 -8 -48 0 -37 9 -44 15
-41 31 3 20 3 20 -19 0 l-22 -20 39 -11 c89 -26 103 -27 103 -7 0 10 7 29 16
41 8 12 11 22 6 22 -5 0 -14 -10 -20 -22z"/>
<path d="M695 682 c14 -28 19 -31 43 -26 46 11 61 25 20 18 -32 -5 -41 -2 -58
17 l-21 24 16 -33z"/>
<path d="M390 640 c-40 -22 -37 -25 9 -9 17 6 31 15 31 20 0 11 2 12 -40 -11z"/>
<path d="M680 615 l0 -45 -39 0 c-22 0 -47 -3 -56 -6 -13 -5 -15 -2 -10 22 l6
29 -14 -30 c-8 -16 -14 -31 -13 -32 1 0 31 1 69 4 l67 6 0 48 c0 27 -2 49 -5
49 -3 0 -5 -20 -5 -45z"/>
<path d="M220 572 c0 -5 18 -15 40 -22 34 -11 38 -16 29 -31 -7 -15 -6 -19 5
-19 9 0 13 6 10 13 -3 8 10 18 33 27 21 7 32 15 25 18 -7 2 -19 -1 -27 -8 -11
-9 -24 -7 -61 9 -53 24 -54 24 -54 13z"/>
<path d="M461 557 c-13 -21 -12 -21 5 -5 10 10 16 20 13 22 -3 3 -11 -5 -18
-17z"/>
<path d="M189 523 c-13 -15 -12 -15 9 -4 23 12 28 21 13 21 -5 0 -15 -7 -22
-17z"/>
<path d="M540 515 c-24 -24 -26 -24 -69 -9 -24 8 -51 13 -60 11 -9 -3 -5 -5 9
-6 21 -1 22 -3 10 -12 -12 -8 -9 -10 12 -6 15 2 25 1 23 -4 -3 -4 4 -11 15
-14 24 -8 64 15 80 45 14 26 10 25 -20 -5z"/>
<path d="M977 523 c-13 -13 -7 -21 13 -16 11 3 17 9 14 14 -6 11 -18 12 -27 2z"/>
<path d="M1120 514 c0 -8 5 -12 10 -9 6 3 10 10 10 16 0 5 -4 9 -10 9 -5 0
-10 -7 -10 -16z"/>
<path d="M255 507 c-8 -19 -2 -31 13 -26 5 2 6 13 2 24 -7 19 -8 19 -15 2z"/>
<path d="M336 494 c-11 -8 -16 -14 -10 -14 13 0 39 18 34 24 -3 2 -14 -2 -24
-10z"/>
<path d="M771 498 c0 -9 -4 -25 -7 -35 -5 -17 -5 -17 6 0 6 10 9 25 7 35 -4
15 -5 15 -6 0z"/>
<path d="M116 491 c-3 -5 9 -18 27 -30 17 -11 42 -28 54 -37 21 -15 24 -14 57
11 39 30 54 28 110 -10 l36 -25 48 30 c26 16 43 30 37 30 -5 0 -25 -9 -44 -21
l-34 -20 -46 23 c-25 13 -49 27 -52 32 -4 4 -24 -3 -45 -18 -21 -14 -43 -26
-48 -26 -5 0 -28 16 -52 35 -23 19 -45 31 -48 26z"/>
<path d="M90 449 c0 -5 9 -9 20 -9 11 0 20 2 20 4 0 2 -9 6 -20 9 -11 3 -20 1
-20 -4z"/>
<path d="M475 426 c-20 -20 -23 -25 -9 -18 22 11 50 41 43 45 -2 1 -17 -11
-34 -27z"/>
<path d="M279 423 c-13 -15 -12 -15 9 -4 23 12 28 21 13 21 -5 0 -15 -7 -22
-17z"/>
<path d="M596 398 l-59 -41 -41 15 c-23 9 -49 19 -58 23 -12 5 -27 -2 -46 -22
-25 -25 -31 -27 -53 -16 -29 14 -80 36 -94 41 -5 2 1 -6 14 -17 13 -12 30 -21
38 -21 8 0 27 -7 44 -15 29 -15 30 -15 54 14 l25 29 45 -17 c25 -9 50 -22 57
-29 24 -24 -49 -29 -106 -6 -12 5 -17 4 -13 -3 7 -11 24 -15 157 -38 47 -9 93
-18 103 -21 14 -4 17 1 17 25 0 17 -4 31 -9 31 -4 0 -6 -11 -3 -25 4 -24 3
-25 -22 -15 -15 5 -40 10 -56 10 -74 0 -72 28 6 85 48 34 73 56 62 54 -2 0
-30 -18 -62 -41z"/>
<path d="M1340 413 c0 -5 -14 -17 -30 -28 -35 -23 -38 -35 -9 -35 11 0 18 -4
15 -9 -6 -10 82 -26 92 -17 3 3 -6 6 -19 6 -13 0 -31 5 -39 11 -11 8 -4 9 29
4 31 -4 50 -1 67 10 16 11 30 13 41 7 17 -10 15 -12 -35 -38 -22 -11 -23 -14
-7 -14 11 0 36 14 55 29 l35 29 -28 7 c-22 6 -25 10 -16 21 10 12 2 14 -47 12
-57 -1 -58 -1 -16 -7 l44 -6 -24 -22 c-20 -19 -30 -21 -87 -16 l-64 6 24 19
c13 10 33 23 44 28 19 8 19 9 -2 9 -13 1 -23 -2 -23 -6z"/>
<path d="M90 406 c0 -2 24 -19 53 -39 51 -33 54 -34 65 -16 7 10 8 19 3 19 -5
0 -11 -5 -13 -12 -3 -7 -21 0 -50 20 -44 30 -58 37 -58 28z"/>
<path d="M714 386 c-5 -12 -20 -16 -63 -16 -39 0 -51 -3 -41 -10 23 -15 102
-5 112 15 6 9 7 19 4 22 -3 3 -8 -2 -12 -11z"/>
<path d="M764 361 c3 -5 -10 -23 -30 -40 -19 -17 -32 -36 -29 -42 4 -5 25 -17
47 -26 48 -19 40 -29 -29 -35 -44 -4 -50 -3 -45 11 7 21 -2 12 -16 -16 -10
-19 -9 -20 8 -16 16 4 19 2 14 -13 -5 -15 -4 -16 4 -4 6 8 8 18 6 22 -3 4 20
8 52 8 54 0 56 1 52 24 -3 16 3 34 18 53 l23 28 1 -51 c0 -61 -10 -71 -70 -77
l-45 -4 50 -1 c41 -1 56 4 80 24 17 15 22 24 13 20 -15 -5 -18 1 -18 39 0 33
4 45 15 45 8 0 15 5 15 11 0 6 -9 8 -22 3 -13 -3 -20 -3 -16 1 5 5 -11 17 -33
27 -47 20 -52 22 -45 9z m47 -21 c16 0 10 -26 -12 -54 -20 -26 -48 -28 -72 -6
-11 10 45 68 61 64 8 -2 18 -4 23 -4z"/>
<path d="M1060 357 c0 -5 23 -6 50 -2 34 5 55 3 65 -5 21 -17 8 -32 -17 -19
-15 8 -32 8 -64 -1 -24 -7 -58 -10 -75 -8 -27 4 -30 3 -15 -7 15 -12 92 -5
116 10 4 3 10 -1 13 -9 8 -20 61 -15 65 7 7 35 -17 48 -80 45 -32 -2 -58 -7
-58 -11z"/>
<path d="M245 325 c-17 -12 -33 -13 -84 -4 -35 5 -65 8 -68 5 -2 -2 27 -9 66
-16 61 -10 72 -10 95 5 14 10 26 19 26 21 0 8 -15 3 -35 -11z"/>
<path d="M320 294 l-25 -15 25 5 c33 7 101 -4 94 -15 -8 -13 -75 -40 -85 -34
-4 3 -33 -3 -64 -14 -31 -11 -62 -18 -68 -15 -31 11 -107 20 -107 13 0 -5 13
-9 29 -9 15 0 42 -5 60 -11 25 -9 39 -8 71 5 23 9 52 13 69 10 16 -3 31 -1 35
5 4 6 28 20 53 31 51 22 51 28 1 40 -18 4 -40 10 -48 14 -8 3 -26 -2 -40 -10z"/>
<path d="M944 295 c3 -8 9 -21 12 -29 3 -9 -7 -17 -33 -25 l-38 -10 40 5 c54
8 56 10 38 44 -15 31 -30 42 -19 15z"/>
<path d="M212 275 c-22 -12 -20 -12 20 -11 24 0 54 -3 67 -8 15 -5 21 -5 17 2
-3 5 -16 12 -28 15 -13 2 -30 7 -38 10 -8 3 -25 -1 -38 -8z"/>
<path d="M497 273 c18 -2 50 -2 70 0 21 2 7 4 -32 4 -38 0 -55 -2 -38 -4z"/>
<path d="M610 266 c0 -2 7 -7 16 -10 8 -3 12 -2 9 4 -6 10 -25 14 -25 6z"/>
<path d="M463 244 c11 -11 187 -22 187 -11 0 4 -19 7 -42 7 -24 0 -68 3 -98 6
-32 4 -52 3 -47 -2z"/>
<path d="M473 213 c9 -2 25 -2 35 0 9 3 1 5 -18 5 -19 0 -27 -2 -17 -5z"/>
<path d="M1150 209 c-12 -9 -12 -10 3 -5 27 9 134 -24 116 -35 -8 -5 -9 -9 -4
-9 6 0 17 4 25 10 17 10 17 10 -65 35 -59 18 -56 17 -75 4z"/>
<path d="M566 175 c-9 -26 -7 -32 5 -12 6 10 9 21 6 23 -2 3 -7 -2 -11 -11z"/>
<path d="M1113 174 c15 -15 107 -40 119 -33 9 6 7 8 -7 8 -11 -1 -42 6 -69 15
-27 9 -46 13 -43 10z"/>
<path d="M453 153 c9 -2 23 -2 30 0 6 3 -1 5 -18 5 -16 0 -22 -2 -12 -5z"/>
<path d="M933 143 c9 -2 23 -2 30 0 6 3 -1 5 -18 5 -16 0 -22 -2 -12 -5z"/>
</g>
</svg>
