<?xml version="1.0" standalone="no"?>
<!DOCTYPE svg PUBLIC "-//W3C//DTD SVG 20010904//EN"
 "http://www.w3.org/TR/2001/REC-SVG-20010904/DTD/svg10.dtd">
<svg version="1.0" xmlns="http://www.w3.org/2000/svg"
 width="512.000000pt" height="512.000000pt" viewBox="0 0 512.000000 512.000000"
 preserveAspectRatio="xMidYMid meet">

<g transform="translate(0.000000,512.000000) scale(0.100000,-0.100000)"
fill="#000000" stroke="none">
<path d="M1202 3898 l-8 -33 203 -3 c173 -2 203 -5 203 -17 0 -37 -524 -2104
-555 -2190 -72 -199 -150 -316 -238 -356 -52 -23 -76 -24 -106 -3 -30 22 -23
60 23 123 88 121 98 218 28 284 -101 96 -310 13 -372 -149 -47 -124 -25 -234
62 -308 111 -96 334 -88 553 18 229 111 434 328 521 552 10 26 132 496 269
1044 l250 995 148 3 c108 2 147 6 147 15 0 6 3 22 6 35 l6 22 -566 0 -565 0
-9 -32z"/>
<path d="M2392 3898 l-8 -33 138 -3 139 -3 13 -32 c8 -18 101 -297 207 -620
l193 -589 -118 -476 c-66 -263 -123 -492 -128 -510 l-9 -32 -193 0 -193 0 -7
-31 c-3 -17 -6 -35 -6 -40 0 -5 261 -9 594 -9 586 0 595 0 600 20 19 67 38 60
-173 60 -105 0 -191 2 -191 5 0 28 264 1058 277 1081 10 18 221 289 468 603
l450 571 153 0 c83 0 152 1 152 3 0 1 4 17 9 35 l10 32 -424 0 -424 0 -9 -32
-8 -33 213 -3 c117 -1 213 -6 213 -10 0 -13 -823 -1037 -833 -1037 -9 0 -325
938 -342 1018 l-7 27 171 0 c93 0 172 3 174 8 2 4 7 19 11 35 l6 27 -555 0
-554 0 -9 -32z"/>
</g>
</svg>
