<?xml version="1.0" encoding="UTF-8"?>
<svg version="1.1" xmlns="http://www.w3.org/2000/svg" width="960" height="540">
<path d="M0 0 C316.8 0 633.6 0 960 0 C960 178.2 960 356.4 960 540 C643.2 540 326.4 540 0 540 C0 361.8 0 183.6 0 0 Z " fill="#378DF3" transform="translate(0,0)"/>
<path d="M0 0 C5.18531843 0.6481648 9.82186956 1.32111114 14.83642578 2.51879883 C15.78467979 2.74346581 15.78467979 2.74346581 16.75209045 2.97267151 C18.8175332 3.46322455 20.88143389 3.95994222 22.9453125 4.45703125 C24.40242787 4.80503024 25.85961306 5.15273701 27.31686401 5.50016785 C30.36522284 6.22793752 33.41285017 6.95867325 36.45996094 7.69165039 C40.32461287 8.62112108 44.19078269 9.54407956 48.05751228 10.46486378 C51.06792451 11.18236536 54.0775846 11.90298211 57.08703232 12.62451744 C58.50987705 12.96536214 59.93291791 13.30538936 61.35617447 13.64451027 C74.89240791 16.87377836 88.12290419 20.30851559 100.9375 25.8125 C101.98397705 26.25480957 103.0304541 26.69711914 104.10864258 27.15283203 C110.69910861 29.95700372 117.17528213 32.9354123 123.63671875 36.0234375 C131.01370563 39.44226413 138.60040446 42.41794276 146.13354492 45.47412109 C151.69400845 47.74374441 157.18478031 50.06136132 162.5770874 52.70339966 C170.57853316 56.60077563 178.57886523 59.06807631 187.25 61.125 C189.50182691 61.67505612 191.75251178 62.22963831 194.00318909 62.78437805 C195.63345163 63.18575507 197.26419236 63.58519407 198.89537048 63.98283386 C204.82291197 65.43530898 210.72265979 66.97753048 216.61679077 68.55993652 C221.13990836 69.77394019 225.66755972 70.97056651 230.19543457 72.16668701 C232.41294845 72.75666002 234.62859721 73.35369568 236.84216309 73.95831299 C257.26204356 79.52240289 273.84710151 79.25952546 294.69705391 77.18845177 C355.03482262 71.22681506 355.03482262 71.22681506 382.25048828 86.05517578 C387.86053148 89.06077284 393.8384245 91.11911628 399.81698608 93.26229858 C402.78193663 94.33255997 405.72615982 95.45619908 408.671875 96.578125 C409.74501953 96.98611328 410.81816406 97.39410156 411.92382812 97.81445312 C414.8189741 98.93023319 417.70068089 100.07381282 420.578125 101.234375 C421.41126221 101.56832275 422.24439941 101.90227051 423.1027832 102.24633789 C424.58945905 102.84564097 426.0728065 103.4533177 427.55151367 104.07202148 C432.41339473 106.03081324 436.4257494 106.84245452 441.49316406 105.18408203 C442.74178223 104.60182861 442.74178223 104.60182861 444.015625 104.0078125 C444.99877686 103.55881592 445.98192871 103.10981934 446.99487305 102.6472168 C448.06906494 102.14488525 449.14325684 101.64255371 450.25 101.125 C452.65620037 100.02683759 455.06351055 98.9314948 457.47265625 97.83984375 C458.12696121 97.54231705 458.78126617 97.24479034 459.45539856 96.93824768 C468.80074342 92.70515098 478.25103593 88.71203971 487.6875 84.6875 C490.34571988 83.55305555 493.00381637 82.41832478 495.66163635 81.28294373 C497.26523967 80.59809307 498.86915253 79.91396639 500.47349548 79.23085022 C501.60362816 78.7485923 501.60362816 78.7485923 502.7565918 78.2565918 C503.56176239 77.91712021 504.36693298 77.57764862 505.19650269 77.22789001 C507.32528349 76.29551577 509.43210198 75.3128054 511.52737427 74.30738831 C520.82628517 69.90291383 529.71689398 67.43221399 539.85523987 65.78377342 C542.44220493 65.36288816 545.02370827 64.91630387 547.60534668 64.46394348 C551.3149997 63.81602511 555.02609905 63.17769797 558.73876953 62.54730225 C568.51468121 60.8827027 578.27518931 59.13237667 588.03125 57.35546875 C589.00895355 57.17751015 589.9866571 56.99955154 590.99398804 56.81620026 C609.84491649 53.36542891 628.44497356 49.15563584 647 44.375 C647.64510529 44.20910999 648.29021057 44.04321999 648.9548645 43.87230301 C653.24384495 42.76774065 657.5288527 41.64848315 661.8125 40.5234375 C662.9621373 40.22326721 664.1117746 39.92309692 665.29624939 39.61383057 C670.33859327 38.28513421 675.34502704 36.91527145 680.31274414 35.32885742 C698.29839764 29.7717727 716.90640063 29.00135981 735.5871582 27.91674805 C739.48880396 27.68831293 743.38543987 27.42454942 747.2824707 27.12768555 C787.76821941 24.05598142 787.76821941 24.05598142 806.64573669 33.84883118 C810.62263734 35.79342422 814.80155208 37.1199682 819 38.5 C826.44420571 41.06307546 833.82150057 43.78311763 841.1875 46.5625 C843.21350651 47.32170842 845.23954748 48.08082485 847.265625 48.83984375 C850.84814545 50.18358686 854.41977335 51.55092298 857.984375 52.94140625 C859.46847881 53.50332094 860.95283557 54.06456822 862.4375 54.625 C863.08033936 54.88482666 863.72317871 55.14465332 864.38549805 55.41235352 C874.17869522 59.03998711 882.91662062 54.83839188 892.12796021 51.28085327 C895.14248215 50.11708095 898.16588102 48.97724057 901.18894958 47.83589172 C902.82150021 47.21939738 904.45362226 46.60176707 906.08534241 45.983078 C915.72194212 42.3335718 925.39957791 38.79709861 935.08261108 35.27297974 C938.04039536 34.19555203 940.99642558 33.11340764 943.95239258 32.03100586 C945.7715449 31.36804623 947.59079465 30.70535384 949.41015625 30.04296875 C950.25124939 29.73421814 951.09234253 29.42546753 951.95892334 29.10736084 C957.77132992 27 957.77132992 27 960 27 C960 121.38 960 215.76 960 313 C643.2 313 326.4 313 0 313 C0 209.71 0 106.42 0 0 Z " fill="#C5F4F5" transform="translate(0,227)"/>
<path d="M0 0 C5.18531843 0.6481648 9.82186956 1.32111114 14.83642578 2.51879883 C15.78467979 2.74346581 15.78467979 2.74346581 16.75209045 2.97267151 C18.8175332 3.46322455 20.88143389 3.95994222 22.9453125 4.45703125 C24.40242787 4.80503024 25.85961306 5.15273701 27.31686401 5.50016785 C30.36522284 6.22793752 33.41285017 6.95867325 36.45996094 7.69165039 C40.32461287 8.62112108 44.19078269 9.54407956 48.05751228 10.46486378 C51.06792451 11.18236536 54.0775846 11.90298211 57.08703232 12.62451744 C58.50987705 12.96536214 59.93291791 13.30538936 61.35617447 13.64451027 C74.89240791 16.87377836 88.12290419 20.30851559 100.9375 25.8125 C101.98397705 26.25480957 103.0304541 26.69711914 104.10864258 27.15283203 C110.69910861 29.95700372 117.17528213 32.9354123 123.63671875 36.0234375 C131.01370563 39.44226413 138.60040446 42.41794276 146.13354492 45.47412109 C151.69400845 47.74374441 157.18478031 50.06136132 162.5770874 52.70339966 C170.57853316 56.60077563 178.57886523 59.06807631 187.25 61.125 C189.50182691 61.67505612 191.75251178 62.22963831 194.00318909 62.78437805 C195.63345163 63.18575507 197.26419236 63.58519407 198.89537048 63.98283386 C204.82291197 65.43530898 210.72265979 66.97753048 216.61679077 68.55993652 C221.13990836 69.77394019 225.66755972 70.97056651 230.19543457 72.16668701 C232.41294845 72.75666002 234.62859721 73.35369568 236.84216309 73.95831299 C257.26204356 79.52240289 273.84710151 79.25952546 294.69705391 77.18845177 C355.03482262 71.22681506 355.03482262 71.22681506 382.25048828 86.05517578 C387.86053148 89.06077284 393.8384245 91.11911628 399.81698608 93.26229858 C402.78193663 94.33255997 405.72615982 95.45619908 408.671875 96.578125 C409.74501953 96.98611328 410.81816406 97.39410156 411.92382812 97.81445312 C414.8189741 98.93023319 417.70068089 100.07381282 420.578125 101.234375 C421.41126221 101.56832275 422.24439941 101.90227051 423.1027832 102.24633789 C424.58945905 102.84564097 426.0728065 103.4533177 427.55151367 104.07202148 C432.41339473 106.03081324 436.4257494 106.84245452 441.49316406 105.18408203 C442.74178223 104.60182861 442.74178223 104.60182861 444.015625 104.0078125 C444.99877686 103.55881592 445.98192871 103.10981934 446.99487305 102.6472168 C448.06906494 102.14488525 449.14325684 101.64255371 450.25 101.125 C452.65620037 100.02683759 455.06351055 98.9314948 457.47265625 97.83984375 C458.12696121 97.54231705 458.78126617 97.24479034 459.45539856 96.93824768 C468.80074342 92.70515098 478.25103593 88.71203971 487.6875 84.6875 C490.34571988 83.55305555 493.00381637 82.41832478 495.66163635 81.28294373 C497.26523967 80.59809307 498.86915253 79.91396639 500.47349548 79.23085022 C501.60362816 78.7485923 501.60362816 78.7485923 502.7565918 78.2565918 C503.56176239 77.91712021 504.36693298 77.57764862 505.19650269 77.22789001 C507.32528349 76.29551577 509.43210198 75.3128054 511.52737427 74.30738831 C520.82628517 69.90291383 529.71689398 67.43221399 539.85523987 65.78377342 C542.44220493 65.36288816 545.02370827 64.91630387 547.60534668 64.46394348 C551.3149997 63.81602511 555.02609905 63.17769797 558.73876953 62.54730225 C568.51468121 60.8827027 578.27518931 59.13237667 588.03125 57.35546875 C589.00895355 57.17751015 589.9866571 56.99955154 590.99398804 56.81620026 C609.84491649 53.36542891 628.44497356 49.15563584 647 44.375 C647.64510529 44.20910999 648.29021057 44.04321999 648.9548645 43.87230301 C653.24384495 42.76774065 657.5288527 41.64848315 661.8125 40.5234375 C662.9621373 40.22326721 664.1117746 39.92309692 665.29624939 39.61383057 C670.33859327 38.28513421 675.34502704 36.91527145 680.31274414 35.32885742 C698.29839764 29.7717727 716.90640063 29.00135981 735.5871582 27.91674805 C739.48880396 27.68831293 743.38543987 27.42454942 747.2824707 27.12768555 C787.76821941 24.05598142 787.76821941 24.05598142 806.64573669 33.84883118 C810.62263734 35.79342422 814.80155208 37.1199682 819 38.5 C826.44420571 41.06307546 833.82150057 43.78311763 841.1875 46.5625 C843.21350651 47.32170842 845.23954748 48.08082485 847.265625 48.83984375 C850.84814545 50.18358686 854.41977335 51.55092298 857.984375 52.94140625 C859.46847881 53.50332094 860.95283557 54.06456822 862.4375 54.625 C863.08033936 54.88482666 863.72317871 55.14465332 864.38549805 55.41235352 C874.17869522 59.03998711 882.91662062 54.83839188 892.12796021 51.28085327 C895.14248215 50.11708095 898.16588102 48.97724057 901.18894958 47.83589172 C902.82150021 47.21939738 904.45362226 46.60176707 906.08534241 45.983078 C915.72194212 42.3335718 925.39957791 38.79709861 935.08261108 35.27297974 C938.04039536 34.19555203 940.99642558 33.11340764 943.95239258 32.03100586 C945.7715449 31.36804623 947.59079465 30.70535384 949.41015625 30.04296875 C950.25124939 29.73421814 951.09234253 29.42546753 951.95892334 29.10736084 C957.77132992 27 957.77132992 27 960 27 C960 74.85 960 122.7 960 172 C956.52397477 171.30479495 953.75972851 170.64370216 950.51806641 169.42456055 C949.65644394 169.10260208 948.79482147 168.78064362 947.90708923 168.44892883 C946.98126541 168.09839951 946.05544159 167.74787018 945.1015625 167.38671875 C944.12631119 167.02059982 943.15105988 166.6544809 942.14625549 166.27726746 C940.05544409 165.49153033 937.96532109 164.70395942 935.87582397 163.91473389 C932.61212244 162.68263853 929.34597117 161.45722984 926.0793457 160.23291016 C916.45694689 156.61915617 906.85033534 152.9785618 897.31640625 149.13671875 C895.90609122 148.57266257 894.49577237 148.00861594 893.08544922 147.44458008 C890.56531927 146.43532785 888.05970754 145.40282503 885.55517578 144.35424805 C884.43739746 143.90476807 883.31961914 143.45528809 882.16796875 142.9921875 C881.23235107 142.60401855 880.2967334 142.21584961 879.33276367 141.81591797 C870.01199346 139.53403283 860.21790588 141.42188069 850.83908081 142.66676331 C848.50885141 142.97586644 846.1776119 143.27602448 843.84594727 143.57409668 C838.89628944 144.20838603 833.94805756 144.85336106 829 145.5 C823.25834478 146.25035057 817.51616747 146.99610184 811.77243042 147.73036194 C809.49472658 148.02387556 807.21821852 148.32563116 804.94165039 148.62780762 C790.52950318 150.50942081 779.55607854 149.74398547 765.74609375 145.29296875 C764.19436839 144.80552559 762.64219932 144.31949295 761.08961487 143.83479309 C757.02686303 142.56243341 752.9702229 141.27160411 748.91467285 139.97650146 C744.80658958 138.66804061 740.69318524 137.37654802 736.58007812 136.08398438 C731.23231816 134.40229504 725.88644194 132.71497636 720.54405499 131.01629257 C717.36415939 130.00621563 714.18226564 129.00258738 711 128 C709.46306488 127.51376915 709.46306488 127.51376915 707.89508057 127.01771545 C707.00568787 126.74213303 706.11629517 126.4665506 705.19995117 126.18261719 C704.45581467 125.9505658 703.71167816 125.7185144 702.94499207 125.47943115 C695.44311201 123.63025394 687.80672369 128.45226753 681.125 131.4375 C679.83410104 132.00659712 678.54283047 132.57485193 677.2512207 133.14233398 C674.41011155 134.39217635 671.57131357 135.64709458 668.73388672 136.90527344 C663.56973222 139.19333323 658.39651735 141.46055537 653.22265625 143.7265625 C646.07774458 146.85685701 638.93390871 149.98956037 631.79296875 153.12890625 C631.03774429 153.46076935 630.28251984 153.79263245 629.50440979 154.134552 C628.7800322 154.4531015 628.0556546 154.771651 627.30932617 155.09985352 C626.24094009 155.55982224 626.24094009 155.55982224 625.15097046 156.02908325 C623.67956951 156.69325222 622.23039834 157.4083498 620.80435181 158.16500854 C611.90733736 162.71322148 604.3845613 160.36682043 595.22383118 157.47433472 C594.1664122 157.12960114 593.10899323 156.78486755 592.01953125 156.4296875 C590.88964279 156.0703714 589.75975433 155.7110553 588.59562683 155.34085083 C584.99821776 154.19481442 581.40529297 153.0354172 577.8125 151.875 C575.45147357 151.11884898 573.09014744 150.36363311 570.72851562 149.609375 C569.56673798 149.23822571 568.40496033 148.86707642 567.20797729 148.48468018 C562.59765931 147.01307892 557.98680871 145.54316477 553.37506104 144.0760498 C551.12270568 143.3579453 548.87136055 142.63666458 546.62103271 141.91223145 C543.4422294 140.89109062 540.25899349 139.88514813 537.07421875 138.8828125 C536.12642044 138.57479706 535.17862213 138.26678162 534.20210266 137.94943237 C533.32418564 137.67624176 532.44626862 137.40305115 531.54174805 137.12158203 C530.78137741 136.87957062 530.02100677 136.6375592 529.2375946 136.38821411 C526.49754961 135.91282678 524.65437248 136.18743871 522 137 C520.30169468 138.14322164 520.30169468 138.14322164 518.89379883 139.68383789 C518.34005081 140.24434341 517.7863028 140.80484894 517.21577454 141.38233948 C516.63538925 141.98964401 516.05500397 142.59694855 515.45703125 143.22265625 C514.84736008 143.84273056 514.2376889 144.46280487 513.60954285 145.10166931 C511.66744025 147.07934287 509.73926179 149.06988655 507.8125 151.0625 C505.87331332 153.05686581 503.93130217 155.04826358 501.98332214 157.03404236 C500.77246006 158.26948201 499.56698373 159.51022707 498.36738586 160.75660706 C496.94922457 162.20880118 495.4790954 163.6099187 494 165 C493.34 165 492.68 165 492 165 C491.67 165.99 491.34 166.98 491 168 C490.34 168 489.68 168 489 168 C489 168.66 489 169.32 489 170 C487.53646851 171.4410553 487.53646851 171.4410553 485.50927734 173.11743164 C481.05557588 176.90682588 476.95061391 180.95470819 472.8515625 185.12109375 C471.33736771 186.64791354 469.8230411 188.17460261 468.30859375 189.70117188 C465.94976775 192.084976 463.59258711 194.47036703 461.23779297 196.8581543 C458.94668707 199.17927571 456.64955394 201.49429207 454.3515625 203.80859375 C453.28912827 204.89121742 453.28912827 204.89121742 452.20523071 205.99571228 C451.55049774 206.65382401 450.89576477 207.31193573 450.22119141 207.98999023 C449.64575592 208.57288315 449.07032043 209.15577606 448.47744751 209.7563324 C447 211 447 211 445 211 C445 211.66 445 212.32 445 213 C443.56640625 214.76171875 443.56640625 214.76171875 441.5625 216.6875 C440.92441406 217.33074219 440.28632813 217.97398437 439.62890625 218.63671875 C429.90828135 223.67757773 407.92714525 214.68509477 397.49972248 212.26317406 C392.9779425 211.2130147 388.4538316 210.18096082 383.91772461 209.19433594 C363.22586069 204.68197028 345.64663028 200.48299767 329.01345825 186.6552124 C326.28276577 184.41038013 323.42121922 182.46464371 320.48828125 180.4921875 C318.76238397 179.28737013 317.03710017 178.08167336 315.3125 176.875 C305.98519011 170.3682597 296.61466681 163.92779319 287.22119141 157.51708984 C283.56043525 155.01676683 279.90445503 152.50952091 276.25 150 C275.61843994 149.5671167 274.98687988 149.1342334 274.33618164 148.68823242 C273.73539795 148.27549072 273.13461426 147.86274902 272.515625 147.4375 C271.96399405 147.06112239 271.41236311 146.68474478 270.84401608 146.29696178 C269.6804827 145.47860757 268.53497891 144.63339444 267.41787815 143.7527132 C263.03567148 140.35346124 259.05158236 138.82063707 253.68139648 137.59643555 C252.8804657 137.400634 252.07953491 137.20483246 251.2543335 137.00309753 C248.62999667 136.36570224 246.00096564 135.75083895 243.37109375 135.13671875 C241.53431009 134.69663358 239.69781184 134.25535567 237.86158752 133.8129425 C234.02331369 132.89158955 230.18277028 131.98066715 226.34008789 131.07788086 C221.42150091 129.92204654 216.50789319 128.74652965 211.59567165 127.5639677 C207.8077351 126.65324558 204.0180855 125.74984064 200.22780037 124.84894753 C198.41539431 124.41787182 196.603351 123.98526798 194.7916851 123.55109215 C192.25910933 122.94596761 189.72455997 122.34996604 187.18920898 121.7565918 C186.44566666 121.57743225 185.70212433 121.39827271 184.93605042 121.21368408 C178.8475905 119.80581411 173.99915499 118.95626824 168.5078125 122.24609375 C167.22777344 122.99439453 167.22777344 122.99439453 165.921875 123.7578125 C164.99890625 124.31210937 164.0759375 124.86640625 163.125 125.4375 C153.5327661 131.03505686 143.82826442 136.33254248 134 141.5 C123.25908805 147.15876735 112.61168115 152.93937484 102.078125 158.97851562 C100.42495657 159.92621565 98.76866132 160.86849526 97.10839844 161.80371094 C95.32975896 162.8128973 93.57236238 163.85938874 91.8203125 164.9140625 C87.11653181 166.72521351 83.12833848 165.42550138 78.51953125 163.6875 C77.27980958 163.13397106 76.04430244 162.57093508 74.8125 162 C74.12866745 161.69217087 73.4448349 161.38434174 72.74028015 161.06718445 C71.26215146 160.40072596 69.78581651 159.73027752 68.31112671 159.0562439 C65.15266551 157.61274651 61.98560313 156.18861349 58.81877136 154.76359558 C57.14664959 154.01111975 55.47495413 153.25769592 53.80366516 152.50337219 C44.13599895 148.14501739 34.41299533 143.91481423 24.6875 139.6875 C23.01103552 138.95775623 21.33460245 138.2279403 19.65820312 137.49804688 C16.70692457 136.21374556 13.75555922 134.92964637 10.8034668 133.6472168 C10.23476364 133.40013474 9.66606049 133.15305267 9.0801239 132.89848328 C6.05626768 131.59236673 3.02755363 130.29752298 0 129 C0 86.43 0 43.86 0 0 Z " fill="#9FF3F1" transform="translate(0,227)"/>
<path d="M0 0 C0.61665527 0.32701904 1.23331055 0.65403809 1.86865234 0.9909668 C3.28809002 1.72234094 4.70874903 2.45134772 6.13037109 3.1784668 C7.30092041 3.77788086 7.30092041 3.77788086 8.49511719 4.3894043 C13.35270867 6.83440744 18.27160519 9.15258578 23.18115234 11.4909668 C32.11607034 15.75788727 41.00514278 20.10334032 49.83398438 24.5859375 C51.47626798 25.41564831 53.12541084 26.23190061 54.78062439 27.0355072 C57.23971466 28.26895293 59.62784105 29.54964113 62.02806091 30.88824463 C74.3528329 37.52120211 84.53547451 38.9672609 98.38037109 38.77612305 C100.34863259 38.78179414 102.31688619 38.7914288 104.28511047 38.80479431 C109.39662516 38.82911945 114.50644195 38.80062236 119.61779785 38.76000977 C125.78725537 38.72242491 131.95673196 38.75240804 138.12622833 38.77068329 C147.43721063 38.79089071 156.74414042 38.72683586 166.05615234 38.6784668 C166.05615234 60.4584668 166.05615234 82.2384668 166.05615234 104.6784668 C148.24365234 111.1784668 148.24365234 111.1784668 142.26464844 113.35839844 C132.47944478 116.93172615 122.71299379 120.54954253 112.97021484 124.23706055 C111.00908246 124.97677448 109.04790145 125.71635952 107.08666992 126.45581055 C104.23877703 127.52971463 101.39236719 128.60688807 98.54989624 129.69506836 C95.90543635 130.70731752 93.25672202 131.70761002 90.60693359 132.70581055 C89.82738312 133.00821152 89.04783264 133.31061249 88.24465942 133.62217712 C81.98226658 135.9608166 77.2820601 136.4527124 70.92333984 133.95581055 C69.96298828 133.58584961 69.00263672 133.21588867 68.01318359 132.8347168 C66.48757813 132.23143555 66.48757813 132.23143555 64.93115234 131.6159668 C62.76259283 130.77948495 60.59331074 129.94487417 58.42333984 129.11206055 C57.34536133 128.69682129 56.26738281 128.28158203 55.15673828 127.85375977 C50.81860962 126.20936989 46.44398194 124.6840946 42.05615234 123.1784668 C33.69325514 120.29610902 25.41165113 117.22029334 17.15380859 114.04956055 C15.29148669 113.34109683 13.42434996 112.64516289 11.55265808 111.96183777 C9.74438104 111.29812078 7.93674244 110.63203108 6.14147377 109.9338932 C-5.3795963 105.46847846 -15.15396711 103.821244 -27.45556641 104.4128418 C-29.11762625 104.47306538 -30.7797166 104.53245187 -32.4418335 104.59107971 C-37.84259766 104.80262884 -43.23591673 105.11149276 -48.63134766 105.4284668 C-49.56611561 105.47971584 -50.50088356 105.53096489 -51.46397781 105.58376694 C-85.60207724 107.46143129 -117.29459326 113.8438125 -150.16113281 122.97583008 C-153.77282113 123.97720439 -157.3853438 124.97549865 -160.99853516 125.97143555 C-161.89267246 126.21872658 -162.78680977 126.46601761 -163.70804214 126.72080231 C-177.73915806 130.57563175 -191.79617049 133.5424688 -206.13916016 135.97924805 C-207.09502455 136.14173601 -208.05088894 136.30422398 -209.03571892 136.47163582 C-213.81003746 137.2790555 -218.58625163 138.07467525 -223.3633728 138.86532593 C-254.76857212 144.07272141 -282.61692495 150.36327684 -311.08740234 165.2199707 C-318.75888581 169.17837779 -326.74258388 172.45300437 -334.69134521 175.80712891 C-338.56094205 177.44440034 -342.41642426 179.11391781 -346.27197266 180.78393555 C-346.92457062 181.06520798 -347.57716858 181.34648041 -348.24954224 181.63627625 C-350.50441581 182.60959733 -352.74665374 183.57986984 -354.94384766 184.6784668 C-362.52890616 184.35861493 -368.70132741 182.13387456 -375.69384766 179.3034668 C-378.01119169 178.3884811 -380.32891431 177.4744538 -382.64697266 176.5612793 C-383.84515625 176.0859375 -385.04333984 175.6105957 -386.27783203 175.12084961 C-392.31064785 172.74725638 -398.37777381 170.4654179 -404.44384766 168.1784668 C-406.62125617 167.35641093 -408.7983311 166.53347103 -410.97509766 165.7097168 C-412.18552734 165.27127441 -413.39595703 164.83283203 -414.64306641 164.38110352 C-417.98147027 163.12321641 -421.1392888 161.61938442 -424.33837891 160.04223633 C-443.23118888 151.17352226 -459.36088078 152.22793483 -479.5199585 154.30963135 C-484.37423872 154.79795632 -489.23603649 155.20335719 -494.09692383 155.61964607 C-497.88088043 155.94495676 -501.66235557 156.28124808 -505.44140625 156.65963745 C-522.96260322 158.38289859 -538.17791882 157.81542544 -555.26025391 153.33081055 C-557.05429952 152.87524424 -558.84873785 152.42122204 -560.64353943 151.96864319 C-564.37571316 151.02271475 -568.10380659 150.06254283 -571.8293457 149.09082031 C-576.55202192 147.85962232 -581.28172041 146.65860463 -586.01466465 145.46756649 C-589.71260045 144.53451429 -593.40711888 143.58847694 -597.10072136 142.63842964 C-598.84144349 142.19164054 -600.58296153 141.74793823 -602.32534981 141.30769157 C-616.44578267 137.72395243 -629.56045341 132.77156859 -642.69384766 126.4909668 C-650.78272097 122.62338582 -659.08878449 119.2794243 -667.3835144 115.88461304 C-674.41441205 113.00480955 -681.40560924 110.09284437 -688.25634766 106.8034668 C-704.94282272 98.89346055 -722.18128631 94.73382959 -740.08111572 90.60449219 C-744.27704953 89.63426962 -748.46968985 88.6499355 -752.66268539 87.66710758 C-755.93524456 86.90021362 -759.20833738 86.13605059 -762.48297119 85.3780365 C-773.00576076 82.93434699 -783.45797497 80.29993497 -793.94384766 77.6784668 C-793.94384766 63.4884668 -793.94384766 49.2984668 -793.94384766 34.6784668 C-788.49281758 34.6784668 -783.52361214 34.70536883 -778.17431641 35.23486328 C-776.2584951 35.42382675 -776.2584951 35.42382675 -774.30397034 35.61660767 C-772.91300469 35.76004148 -771.52213318 35.90439055 -770.13134766 36.04956055 C-769.40474882 36.12491405 -768.67814999 36.20026756 -767.929533 36.27790451 C-762.26521523 36.86894165 -756.60429919 37.48912071 -750.94384766 38.1159668 C-750.09595295 38.20889889 -749.24805824 38.30183098 -748.37446976 38.39757919 C-720.14946766 41.50042525 -692.50456735 46.23157554 -664.69436646 51.9162674 C-636.2910247 57.71906669 -608.43310279 62.36083497 -579.44384766 63.7409668 C-578.74059734 63.77484623 -578.03734703 63.80872566 -577.3127861 63.84363174 C-568.99104673 64.23550731 -560.67084951 64.48443273 -552.34085083 64.61602783 C-549.15315226 64.67461965 -545.96968107 64.77608527 -542.78344727 64.88696289 C-524.93298067 65.36663921 -507.53472661 62.9331524 -489.8972168 60.50640869 C-483.5420421 59.6347056 -477.18335208 58.78930388 -470.82407951 57.94810486 C-468.63530373 57.65557654 -466.44795916 57.35382789 -464.26063538 57.05065918 C-453.47382041 55.57935018 -444.47683347 54.46755764 -434.23681641 58.57299805 C-433.44119293 58.87631546 -432.64556946 59.17963287 -431.82583618 59.49214172 C-429.25476706 60.47635254 -426.69332534 61.48335653 -424.13134766 62.4909668 C-422.34574932 63.17925282 -420.55952789 63.86592444 -418.77270508 64.55102539 C-415.18688471 65.92828388 -411.60451322 67.31395958 -408.02490234 68.70727539 C-403.46807308 70.47904213 -398.90111695 72.22231177 -394.32666016 73.94799805 C-393.67166031 74.19514053 -393.01666046 74.44228302 -392.34181213 74.69691467 C-390.47999733 75.39911644 -388.61817267 76.10129208 -386.75634766 76.8034668 C-384.55413002 77.63836389 -382.35228582 78.47424689 -380.15087891 79.3112793 C-378.6052124 79.88797363 -378.6052124 79.88797363 -377.02832031 80.47631836 C-374.93726265 81.29129128 -372.86853242 82.16554808 -370.82421875 83.09155273 C-364.86652663 85.69775727 -359.99197069 86.95787781 -353.45703125 86.85986328 C-352.76101083 86.85097989 -352.06499041 86.8420965 -351.34787846 86.83294392 C-344.23543203 86.7186839 -337.13457055 86.38339243 -330.03369141 85.97143555 C-329.34324108 85.93207949 -328.65279076 85.89272343 -327.94141769 85.85217476 C-295.17110606 83.97370727 -262.45383299 81.33777623 -229.8454895 77.56460571 C-226.18817167 77.14243415 -222.52970395 76.7472181 -218.8666687 76.37802124 C-192.85128602 73.72478542 -171.10377808 66.97518409 -147.48527527 55.79669189 C-140.72769905 52.61362858 -133.84316848 49.7231706 -126.96508026 46.81254578 C-124.07775148 45.58751975 -121.19632313 44.34890596 -118.31506443 43.10968399 C-112.02458882 40.40554644 -105.71976956 37.73737024 -99.40087891 35.1003418 C-98.70538437 34.80992004 -98.00988983 34.51949829 -97.2933197 34.22027588 C-94.03163539 32.85923464 -90.768302 31.50251868 -87.50219727 30.15209961 C-80.87470078 27.39532415 -74.33868503 24.49225323 -67.84944153 21.42689514 C-59.77793197 17.63108809 -51.5750395 14.13782413 -43.38134766 10.6159668 C-40.99486693 9.58714788 -38.60864527 8.55773121 -36.2225647 7.52798462 C-34.67196936 6.8603882 -33.12036724 6.19512485 -31.56771851 5.53231812 C-27.98551734 4.00197073 -24.42058607 2.44886595 -20.88574219 0.81176758 C-20.2548317 0.52515762 -19.6239212 0.23854767 -18.97389221 -0.05674744 C-17.29253125 -0.82271354 -15.61800571 -1.60363543 -13.9440918 -2.38574219 C-8.68193869 -4.02703382 -4.75956664 -2.45471605 0 0 Z " fill="#63AFF2" transform="translate(793.94384765625,149.321533203125)"/>
<path d="M0 0 C11.23809524 5.61904762 11.23809524 5.61904762 14.875 7.98828125 C15.70112793 8.52122803 16.52725586 9.0541748 17.37841797 9.60327148 C18.24354004 10.16731689 19.10866211 10.7313623 20 11.3125 C28.23446449 16.6171915 36.52277002 21.82020508 44.875 26.9375 C53.75204296 32.3808003 62.60827704 37.85456014 71.4375 43.375 C72.45634277 44.01171631 73.47518555 44.64843262 74.52490234 45.30444336 C81.58944901 49.72629934 81.58944901 49.72629934 85 52 C90.00481243 51.65553571 94.32120634 50.33269798 98.99829102 48.57910156 C99.65957504 48.33339417 100.32085907 48.08768677 101.00218201 47.83453369 C103.17195388 47.02649765 105.3378661 46.20860574 107.50390625 45.390625 C109.02953927 44.8204612 110.55541765 44.25095357 112.08152771 43.68206787 C116.09466076 42.18425327 120.10464739 40.67819186 124.11395264 39.17016602 C128.94431115 37.35491351 133.77811182 35.54885384 138.6115942 33.74193954 C143.08494316 32.06951157 147.55717748 30.3942093 152.02704811 28.71250439 C153.397794 28.19967347 154.77014675 27.69111564 156.14412498 27.18700886 C159.29928845 26.02871293 162.39587668 24.82962451 165.48536682 23.49998474 C175.40546264 19.41345763 183.96337567 19.54545772 194.45703125 20.19140625 C196.23212682 20.28382623 198.00726447 20.37544101 199.78244019 20.46630859 C205.46333617 20.77462203 211.13731158 21.16430499 216.8125 21.5625 C217.77769688 21.62721874 218.74289375 21.69193748 219.73733902 21.7586174 C250.60418849 23.83440995 276.70681209 28.54833524 305.06713867 41.34008789 C305.99553558 41.75590118 306.9239325 42.17171448 307.88046265 42.60012817 C309.51259186 43.3325354 311.14425041 44.06606978 312.77069473 44.81101608 C336.23328127 55.5421379 356.4314843 58.6882125 382.12948608 58.06436157 C391.10153173 57.84722553 400.07524434 57.85514034 409.04948616 57.85281181 C411.15192918 57.85197686 413.25437238 57.84904317 415.35680962 57.84404182 C440.69231401 57.79320952 465.91044801 59.21428828 491.1875 60.8125 C493.36863233 60.94849162 495.54977448 61.08432599 497.73092651 61.22000122 C511.82379125 62.10034754 525.91285578 63.03264711 540 64 C540.84449455 64.05795998 541.68898911 64.11591995 542.5590744 64.17563629 C547.88728789 64.54193585 553.21523901 64.91188854 558.54296875 65.28515625 C559.22829618 65.33315935 559.91362362 65.38116245 560.61971855 65.43062019 C567.25467936 65.89636467 573.88849987 66.37274115 580.52026367 66.88208008 C586.01108171 67.30066797 591.50247235 67.68101857 597 68 C597.76803955 68.04588257 598.5360791 68.09176514 599.32739258 68.13903809 C608.78256484 68.63954501 616.15289129 67.61514937 624.75 63.5 C626.36261719 62.77490234 626.36261719 62.77490234 628.0078125 62.03515625 C630.38335134 60.9648292 632.75175279 59.88515627 635.11523438 58.7890625 C639.31291139 56.84727994 643.53725686 54.96756997 647.765625 53.09375 C648.51876984 52.75981735 649.27191467 52.4258847 650.04788208 52.08183289 C651.5882684 51.39899206 653.12872506 50.71630988 654.66925049 50.03378296 C657.00627218 48.99721803 659.34197088 47.95772934 661.67724609 46.91723633 C682.4579639 37.65939083 703.30593782 28.97356943 724.71839905 21.26856995 C732.67852094 18.40197538 740.61651385 15.47536376 748.55480957 12.54898071 C750.99275476 11.65069825 753.43136703 10.75424867 755.87011719 9.8581543 C756.63780426 9.57552231 757.40549133 9.29289032 758.19644165 9.00169373 C759.69917333 8.44869886 761.20239951 7.89704569 762.70614624 7.34681702 C766.07037448 6.11000383 769.41395908 4.84643081 772.72607422 3.47558594 C773.84643066 3.01700195 774.96678711 2.55841797 776.12109375 2.0859375 C777.07298584 1.68165527 778.02487793 1.27737305 779.00561523 0.86083984 C786.65027703 -1.33688355 793.55124268 0.60723992 801.0390625 2.52734375 C802.1140097 2.79454727 803.18895691 3.06175079 804.29647827 3.33705139 C807.7415791 4.19510991 811.18335581 5.06569117 814.625 5.9375 C819.07459339 7.05450183 823.52550392 8.16619671 827.9765625 9.27734375 C829.14486603 9.56999619 830.31316956 9.86264862 831.51687622 10.16416931 C840.58363679 12.42564001 849.67166932 14.58527796 858.76877594 16.7206459 C879.31577761 21.54529865 899.77855447 26.67856577 920.23065186 31.88922119 C925.5480193 33.24307879 930.86658792 34.5922103 936.18493652 35.94220734 C944.12417661 37.95800963 952.06194498 39.97951025 960 42 C960 56.19 960 70.38 960 85 C938.95178817 85.56152333 938.95178817 85.56152333 929.77929688 85.68359375 C923.58864363 85.76638015 917.40096323 85.86279855 911.21264648 86.05615234 C886.19158512 86.81715468 866.70400116 86.24632352 845.04708862 72.81297302 C839.79011037 69.68514809 834.23281665 67.19328967 828.6875 64.625 C826.64175759 63.6476054 824.59726523 62.66758483 822.5546875 61.68359375 C821.6069043 61.22710449 820.65912109 60.77061523 819.68261719 60.30029297 C815.87882712 58.45655563 812.09197279 56.58049938 808.3125 54.6875 C807.37519043 54.22089966 807.37519043 54.22089966 806.41894531 53.74487305 C803.30462019 52.18729569 800.22249744 50.58673011 797.1640625 48.921875 C796.22373169 48.42167847 796.22373169 48.42167847 795.2644043 47.91137695 C793.56375126 47.00480139 791.87322112 46.07930618 790.18359375 45.15234375 C781.97582342 42.18143302 774.51274121 47.24602729 767.125 50.6875 C764.53653542 51.87570073 761.94441688 53.05578868 759.3515625 54.234375 C758.67857117 54.54092514 758.00557983 54.84747528 757.31219482 55.16331482 C748.09056145 59.34587661 738.74480709 63.23946965 729.40673828 67.15307617 C723.46548659 69.64804193 717.55149928 72.17680964 711.7109375 74.90234375 C703.26712485 78.83999654 694.69322854 82.46862744 686.125 86.125 C684.31025626 86.90093299 682.49556006 87.67697715 680.6809082 88.453125 C674.78872044 90.97214808 668.89454683 93.48650301 663 96 C661.41387909 96.67645569 661.41387909 96.67645569 659.79571533 97.36657715 C652.26058757 100.57993607 644.72441994 103.79084704 637.1875 107 C636.15796204 107.43846252 635.12842407 107.87692505 634.06768799 108.32867432 C631.14305745 109.57393243 628.21808047 110.81837268 625.29296875 112.0625 C623.98949242 112.61754715 623.98949242 112.61754715 622.65968323 113.18380737 C621.8531279 113.5266275 621.04657257 113.86944763 620.21557617 114.22265625 C619.51840988 114.51922119 618.82124359 114.81578613 618.10295105 115.12133789 C617.4089772 115.41129639 616.71500336 115.70125488 616 116 C614.85989723 116.51417732 614.85989723 116.51417732 613.69676208 117.03874207 C610.35253033 118.23078987 607.15622011 118.68420697 603.63623047 119.1574707 C602.90591331 119.25710271 602.17559614 119.35673471 601.42314816 119.45938587 C598.98875212 119.78889249 596.55313528 120.10796166 594.1171875 120.42578125 C592.37765588 120.65620787 590.6381286 120.88666721 588.89860535 121.11715698 C583.22596258 121.86387921 577.55070534 122.58948355 571.875 123.3125 C570.91047283 123.43609013 569.94594566 123.55968025 568.9521904 123.68701553 C540.03758797 127.38761112 511.15596204 130.34762258 482.0625 132.1875 C480.87727879 132.26325949 480.87727879 132.26325949 479.66811371 132.34054947 C474.41639742 132.67493598 469.16385828 132.9914515 463.91015625 133.29296875 C462.62827927 133.36740204 461.34640228 133.44183533 460.02568054 133.51852417 C453.48989761 133.86612094 446.96007419 134.08542 440.41577148 134.14135742 C439.12984604 134.15301437 437.84392059 134.16467133 436.51902771 134.17668152 C431.15801682 133.90751866 426.86283516 132.27759116 422 130.125 C419.79611038 129.21558126 417.5901822 128.31109514 415.3828125 127.41015625 C414.76890656 127.15606491 414.15500061 126.90197357 413.52249146 126.6401825 C404.15673598 122.78434964 394.63724131 119.31831285 385.14746094 115.78240967 C380.88005837 114.19160515 376.61520748 112.59402514 372.35037231 110.99635315 C366.85930593 108.93725382 366.85930593 108.93725382 361.36077881 106.89822388 C359.87039662 106.33116657 358.39113654 105.73304867 356.9307251 105.09274292 C347.45357039 101.04136217 337.45809873 103.29457309 327.55792046 104.66676331 C325.3122875 104.97687077 323.06549582 105.27681716 320.81813049 105.57409668 C314.43379643 106.41969661 308.05112972 107.27696318 301.67114258 108.15478516 C283.7655957 110.61135534 266.26044202 112.73396185 248.14187622 112.10345459 C244.77612968 111.99262848 241.4118086 111.93454069 238.04467773 111.88134766 C230.19045485 111.73321326 222.34603034 111.44090767 214.5 111.0625 C213.77858574 111.02807045 213.05717148 110.9936409 212.31389618 110.95816803 C183.31553898 109.530307 155.44925942 104.56496731 127.05252075 98.73028564 C84.83872746 90.06547958 42.94611415 85.45733969 0 81 C0 54.27 0 27.54 0 0 Z " fill="#4D99F1" transform="translate(0,103)"/>
</svg>
