<?xml version="1.0" encoding="UTF-8"?>
<svg version="1.1" xmlns="http://www.w3.org/2000/svg" width="960" height="540">
<path d="M0 0 C316.8 0 633.6 0 960 0 C960 178.2 960 356.4 960 540 C643.2 540 326.4 540 0 540 C0 361.8 0 183.6 0 0 Z " fill="#283EC7" transform="translate(0,0)"/>
<path d="M0 0 C9.41885027 0.47108773 18.5023077 2.72129877 27.66015625 4.83203125 C28.5013394 5.02575506 29.34252254 5.21947887 30.20919609 5.4190731 C34.66592547 6.44839983 39.12016225 7.48790395 43.57299805 8.53393555 C47.21573275 9.38741792 50.86236153 10.21927016 54.5144043 11.03198242 C92.44945479 19.48970446 92.44945479 19.48970446 104.56362915 30.70388794 C106.64164747 32.57899186 108.92032028 34.09084531 111.25390625 35.62890625 C111.97352539 36.11979736 112.69314453 36.61068848 113.43457031 37.11645508 C114.13678711 37.5936499 114.83900391 38.07084473 115.5625 38.5625 C117.17326456 39.66133012 118.78394031 40.76029043 120.39453125 41.859375 C121.1726416 42.38982422 121.95075195 42.92027344 122.75244141 43.46679688 C126.08897668 45.74286047 129.42086783 48.02562415 132.75 50.3125 C133.37753174 50.74353027 134.00506348 51.17456055 134.65161133 51.61865234 C138.67307065 54.38586214 142.68277432 57.16956414 146.6875 59.9609375 C147.68942383 60.65920654 148.69134766 61.35747559 149.72363281 62.0769043 C151.67694419 63.43914832 153.62947595 64.80251125 155.58105469 66.16723633 C157.39142178 67.43019805 159.20785803 68.68451802 161.03111267 69.92880249 C162.88725902 71.22371377 164.7169718 72.55840346 166.5025177 73.9490509 C175.40108288 80.56374638 184.4955074 82.7311401 195.15234375 85.15625 C196.98456165 85.59126128 198.81630654 86.02826915 200.64759827 86.46716309 C204.45913663 87.37559302 208.27383723 88.26844972 212.09204102 89.1484375 C216.98157551 90.27539036 221.86445307 91.42844617 226.74552059 92.59146881 C231.42085498 93.70465268 236.09885224 94.80642201 240.77734375 95.90625 C241.66488783 96.1155867 242.55243191 96.3249234 243.46687126 96.54060364 C245.97773737 97.13030356 248.49030881 97.71202023 251.00366211 98.29101562 C251.74294449 98.46546204 252.48222687 98.63990845 253.24391174 98.81964111 C256.87769929 99.64750651 260.26883478 100.33419143 264 100 C265.78995874 98.73693765 265.78995874 98.73693765 267.1875 97 C268.09148347 95.96960195 269.02361428 94.96206921 270 94 C270.66 94 271.32 94 272 94 C272 93.34 272 92.68 272 92 C273.46353149 90.5589447 273.46353149 90.5589447 275.49072266 88.88256836 C279.94442412 85.09317412 284.04938609 81.04529181 288.1484375 76.87890625 C289.66263229 75.35208646 291.1769589 73.82539739 292.69140625 72.29882812 C295.05023225 69.915024 297.40741289 67.52963297 299.76220703 65.1418457 C302.05331293 62.82072429 304.35044606 60.50570793 306.6484375 58.19140625 C307.35672699 57.46965714 308.06501648 56.74790802 308.79476929 56.00428772 C309.44950226 55.34617599 310.10423523 54.68806427 310.77880859 54.01000977 C311.35424408 53.42711685 311.92967957 52.84422394 312.52255249 52.2436676 C314 51 314 51 316 51 C316 50.34 316 49.68 316 49 C317.29077148 47.74804688 317.29077148 47.74804688 319.18359375 46.21875 C323.11092529 42.88531605 326.67018434 39.31382308 330.22265625 35.59375 C331.34923056 34.42671753 332.47618969 33.26005644 333.60351562 32.09375 C335.34721058 30.28807127 337.08372163 28.47742392 338.80297852 26.6484375 C340.48703226 24.8614918 342.19547133 23.10125756 343.91015625 21.34375 C344.41764908 20.79182983 344.92514191 20.23990967 345.44801331 19.67126465 C346.94555664 18.16210937 346.94555664 18.16210937 350 16 C354.95263984 16.35688966 359.47641133 17.62532607 364.20117188 19.10131836 C364.88345352 19.31283035 365.56573517 19.52434235 366.26869202 19.74226379 C368.50364001 20.43644659 370.73616149 21.13811351 372.96875 21.83984375 C374.53366067 22.32735947 376.09872683 22.81437632 377.66394043 23.30091858 C381.77260628 24.5794288 385.87928834 25.86419496 389.98553467 27.15045166 C394.96534385 28.70917291 399.94731755 30.26095821 404.9291153 31.81330967 C408.80717494 33.02180368 412.6848605 34.23145093 416.56140137 35.44480896 C417.27747055 35.66862244 417.99353973 35.89243591 418.73130798 36.12303162 C420.65766671 36.72516355 422.58378671 37.32805911 424.5098877 37.93101501 C435.73025608 41.47993436 435.73025608 41.47993436 446.8046875 38.6484375 C447.92939453 38.1337793 449.05410156 37.61912109 450.21289062 37.08886719 C451.10584839 36.67090881 451.10584839 36.67090881 452.0168457 36.24450684 C454.56943783 35.05004397 457.13334066 33.88081415 459.69671631 32.7097168 C461.05101294 32.09069888 462.40472345 31.47039718 463.75787354 30.84887695 C472.63928322 26.77374469 481.5990148 22.87718497 490.56201172 18.9855957 C491.88509547 18.41098 493.20817495 17.83635449 494.53125 17.26171875 C495.4910527 16.84527855 495.4910527 16.84527855 496.47024536 16.42042542 C500.46801477 14.68130986 504.44222123 12.89657796 508.40625 11.08203125 C509.84194336 10.43572754 509.84194336 10.43572754 511.30664062 9.77636719 C513.03100431 8.99921561 514.74919845 8.2081333 516.45898438 7.39941406 C517.21501953 7.06264648 517.97105469 6.72587891 518.75 6.37890625 C519.38421875 6.0857251 520.0184375 5.79254395 520.671875 5.49047852 C526.50375948 4.26184429 532.77349601 6.36712941 538.31469727 8.10131836 C539.33833878 8.41858635 539.33833878 8.41858635 540.38265991 8.74226379 C542.61261106 9.43510892 544.83945778 10.13741368 547.06640625 10.83984375 C548.62984863 11.32748423 550.19348638 11.81449873 551.75730896 12.30091858 C555.85814176 13.57817405 559.95643962 14.8633759 564.05419922 16.15045166 C569.02593053 17.71046907 574.00053424 19.26129629 578.97476864 20.81330967 C582.84628168 22.02142509 586.7173437 23.23092187 590.58705139 24.44480896 C591.30149918 24.66862244 592.01594696 24.89243591 592.75204468 25.12303162 C594.67374656 25.72512545 596.59519192 26.32803786 598.51661682 26.93101501 C599.66613327 27.28378006 600.81564972 27.6365451 602 28 C603.2019249 28.37089249 604.40384979 28.74178497 605.64219666 29.12391663 C614.93039971 31.54729865 624.78494779 29.57774054 634.16091919 28.33323669 C636.49114859 28.02413356 638.8223881 27.72397552 641.15405273 27.42590332 C646.10371056 26.79161397 651.05194244 26.14663894 656 25.5 C661.74165522 24.74964943 667.48383253 24.00389816 673.22756958 23.26963806 C675.50527342 22.97612444 677.78178148 22.67436884 680.05834961 22.37219238 C701.00825186 19.64436491 701.00825186 19.64436491 711.0234375 23.68359375 C736.2380297 33.80524083 761.56844368 43.39252317 787 53 C787 99.53 787 146.06 787 194 C470.2 194 153.4 194 -173 194 C-173 133.28 -173 72.56 -173 10 C-166.92124304 12.02625232 -161.16625509 14.11180671 -155.34765625 16.703125 C-154.54177567 17.05825668 -153.73589508 17.41338837 -152.90559387 17.77928162 C-151.1819568 18.53945002 -149.45910971 19.30141183 -147.73699951 20.06503296 C-145.02695584 21.26574824 -142.31391234 22.45944612 -139.60009766 23.65161133 C-131.51360352 27.20845575 -123.43796902 30.78581375 -115.40238953 34.45645142 C-112.29522053 35.87500522 -109.18290917 37.28206995 -106.07028198 38.68859863 C-104.61692634 39.34990727 -103.166437 40.01755494 -101.71902466 40.69177246 C-99.71254684 41.62632922 -97.69758529 42.53964411 -95.6796875 43.44921875 C-93.98948486 44.22785278 -93.98948486 44.22785278 -92.26513672 45.0222168 C-87.39771513 46.47982286 -83.80993126 45.76627117 -79.18359375 43.80761719 C-77.82427734 43.0597998 -77.82427734 43.0597998 -76.4375 42.296875 C-75.40608887 41.73572998 -74.37467773 41.17458496 -73.31201172 40.59643555 C-72.21904785 39.98711182 -71.12608398 39.37778809 -70 38.75 C-68.8464502 38.11811768 -67.69290039 37.48623535 -66.50439453 36.83520508 C-58.33952017 32.35620633 -50.24325632 27.75507504 -42.15771484 23.13476562 C-31.98963466 17.35852404 -21.64432396 11.91651369 -11.29638672 6.47143555 C-10.62021301 6.11496445 -9.94403931 5.75849335 -9.24737549 5.39122009 C-7.96748884 4.71684129 -6.68672137 4.04413082 -5.40496826 3.37330627 C-2.51670531 1.95460939 -2.51670531 1.95460939 0 0 Z " fill="#344EFF" transform="translate(173,346)"/>
<path d="M0 0 C316.8 0 633.6 0 960 0 C960 47.85 960 95.7 960 145 C954.5771291 144.32214114 949.88987746 143.5882634 944.67871094 142.24438477 C943.64351318 141.97977133 943.64351318 141.97977133 942.58740234 141.70981216 C941.08998046 141.32642676 939.593127 140.94081566 938.09679413 140.55320168 C935.66728084 139.92403088 933.2362427 139.30108024 930.80474854 138.67961121 C927.28759529 137.78020505 923.77101639 136.87860393 920.25488281 135.97521973 C885.61676371 127.08043528 850.89931073 118.58348699 816.08105469 110.42407227 C814.91297712 110.15022469 814.91297712 110.15022469 813.72130203 109.87084484 C810.0839597 109.01834754 806.44622032 108.16764898 802.80743408 107.32133484 C800.92275421 106.8814196 800.92275421 106.8814196 799 106.43261719 C797.906875 106.17841003 796.81375 105.92420288 795.6875 105.66229248 C793 105 793 105 790 104 C783.91725331 103.61647247 779.49336632 104.51337814 773.85546875 106.7109375 C773.09639221 106.99461182 772.33731567 107.27828613 771.55523682 107.57055664 C769.09456148 108.49325512 766.64120746 109.43394751 764.1875 110.375 C762.47647422 111.02032077 760.76496186 111.6643528 759.05297852 112.30712891 C755.62867115 113.59446798 752.20689221 114.88819098 748.78710938 116.1875 C743.45574587 118.21052658 738.1078175 120.18613382 732.75585938 122.15405273 C728.4665064 123.73226449 724.18334137 125.32687507 719.90039062 126.92236328 C717.18080474 127.93282221 714.45786143 128.93370876 711.734375 129.93359375 C692.4631364 137.0697828 673.74652431 145.56783958 654.96022034 153.87557983 C651.28930539 155.49887445 647.6170553 157.11896315 643.94116211 158.73095703 C642.5323429 159.34917807 641.12356916 159.96750276 639.71484375 160.5859375 C638.70018288 161.03122299 638.70018288 161.03122299 637.6650238 161.48550415 C633.81491061 163.18120561 629.9947197 164.92754136 626.19140625 166.7265625 C625.35633545 167.10965576 624.52126465 167.49274902 623.66088867 167.88745117 C622.23947696 168.54039272 620.82719613 169.21411929 619.4309082 169.91918945 C607.75541757 175.17189003 590.92895646 171.73113002 578.4296875 170.828125 C576.65065882 170.70385788 574.87158956 170.58017061 573.09248352 170.45701599 C569.31744537 170.1950871 565.54261769 169.93036754 561.76791382 169.66366577 C555.7695178 169.24099951 549.77027292 168.83139981 543.77075195 168.42504883 C542.76305913 168.35678926 541.75536631 168.28852968 540.71713734 168.21820164 C538.67899306 168.08024695 536.64084386 167.94236504 534.60268974 167.80455589 C529.53114677 167.46161599 524.45966048 167.11784139 519.38818359 166.77392578 C518.41141505 166.70774016 517.43464651 166.64155455 516.42827892 166.5733633 C511.19594978 166.21842294 505.96390085 165.85977194 500.7321434 165.49650669 C492.23535228 164.90694171 483.73738492 164.34150914 475.23645782 163.81472397 C473.86929538 163.72983406 472.50218377 163.64412144 471.13512421 163.55759048 C453.20689914 162.42557432 435.3391215 161.8947569 417.37377357 161.91841698 C414.26781505 161.92187691 411.16191119 161.91933268 408.05595398 161.9153595 C395.81334517 161.90016387 395.81334517 161.90016387 383.57162476 162.02719116 C359.95696065 162.41867769 340.80177796 161.22300841 319.10510254 151.38143921 C314.59223127 149.37369317 309.97303417 147.72406659 305.3203125 146.07421875 C303.75829663 145.5015752 302.19707158 144.92676901 300.63671875 144.34960938 C297.57444614 143.22138624 294.51191594 142.09386689 291.44921875 140.96679688 C289.90623338 140.39848261 288.36326401 139.83012493 286.8203125 139.26171875 C286.16580109 139.02096115 285.51128967 138.78020355 284.83694458 138.53215027 C284.17419525 138.28781754 283.51144592 138.0434848 282.82861328 137.79174805 C282.10264954 137.52820023 281.37668579 137.2646524 280.62872314 136.99311829 C278.579369 136.21888267 276.54733334 135.39875564 274.52313232 134.56095886 C264.43421158 130.45025723 254.73804351 128.38949994 243.9375 127.15234375 C242.67020113 127.00368174 242.67020113 127.00368174 241.37730026 126.85201645 C234.92668482 126.1113342 228.46837881 125.49976847 222 124.9375 C221.04863411 124.85219906 220.09726822 124.76689812 219.11707306 124.6790123 C178.25339472 121.10796588 146.26919782 130.27818274 109.70458984 147.85864258 C91.52329353 156.53239897 91.52329353 156.53239897 85 156 C83.10083008 155.15234375 83.10083008 155.15234375 81.26953125 153.9375 C80.5628833 153.47883545 79.85623535 153.0201709 79.12817383 152.54760742 C77.98191528 151.78154175 77.98191528 151.78154175 76.8125 151 C75.10534027 149.89011981 73.39693827 148.7821488 71.6875 147.67578125 C70.77097656 147.07975098 69.85445313 146.4837207 68.91015625 145.86962891 C63.76086715 142.56146985 58.53314587 139.3813709 53.3125 136.1875 C40.83079608 128.52833516 28.40994412 120.77470671 16 113 C10.72 109.7 5.44 106.4 0 103 C0 69.01 0 35.02 0 0 Z " fill="#1A2881" transform="translate(0,0)"/>
<path d="M0 0 C5.18531843 0.6481648 9.82186956 1.32111114 14.83642578 2.51879883 C15.78467979 2.74346581 15.78467979 2.74346581 16.75209045 2.97267151 C18.8175332 3.46322455 20.88143389 3.95994222 22.9453125 4.45703125 C24.40242787 4.80503024 25.85961306 5.15273701 27.31686401 5.50016785 C30.36522284 6.22793752 33.41285017 6.95867325 36.45996094 7.69165039 C40.32461287 8.62112108 44.19078269 9.54407956 48.05751228 10.46486378 C51.06792451 11.18236536 54.0775846 11.90298211 57.08703232 12.62451744 C58.50987705 12.96536214 59.93291791 13.30538936 61.35617447 13.64451027 C74.89240791 16.87377836 88.12290419 20.30851559 100.9375 25.8125 C101.98397705 26.25480957 103.0304541 26.69711914 104.10864258 27.15283203 C110.69910861 29.95700372 117.17528213 32.9354123 123.63671875 36.0234375 C131.01370563 39.44226413 138.60040446 42.41794276 146.13354492 45.47412109 C151.69400845 47.74374441 157.18478031 50.06136132 162.5770874 52.70339966 C170.57853316 56.60077563 178.57886523 59.06807631 187.25 61.125 C189.50182691 61.67505612 191.75251178 62.22963831 194.00318909 62.78437805 C195.63345163 63.18575507 197.26419236 63.58519407 198.89537048 63.98283386 C204.82291197 65.43530898 210.72265979 66.97753048 216.61679077 68.55993652 C221.13990836 69.77394019 225.66755972 70.97056651 230.19543457 72.16668701 C232.41294845 72.75666002 234.62859721 73.35369568 236.84216309 73.95831299 C257.26204356 79.52240289 273.84710151 79.25952546 294.69705391 77.18845177 C355.03482262 71.22681506 355.03482262 71.22681506 382.25048828 86.05517578 C387.86053148 89.06077284 393.8384245 91.11911628 399.81698608 93.26229858 C402.78193663 94.33255997 405.72615982 95.45619908 408.671875 96.578125 C409.74501953 96.98611328 410.81816406 97.39410156 411.92382812 97.81445312 C414.8189741 98.93023319 417.70068089 100.07381282 420.578125 101.234375 C421.41126221 101.56832275 422.24439941 101.90227051 423.1027832 102.24633789 C424.58945905 102.84564097 426.0728065 103.4533177 427.55151367 104.07202148 C432.41339473 106.03081324 436.4257494 106.84245452 441.49316406 105.18408203 C442.74178223 104.60182861 442.74178223 104.60182861 444.015625 104.0078125 C444.99877686 103.55881592 445.98192871 103.10981934 446.99487305 102.6472168 C448.06906494 102.14488525 449.14325684 101.64255371 450.25 101.125 C452.65620037 100.02683759 455.06351055 98.9314948 457.47265625 97.83984375 C458.12696121 97.54231705 458.78126617 97.24479034 459.45539856 96.93824768 C468.80074342 92.70515098 478.25103593 88.71203971 487.6875 84.6875 C490.34571988 83.55305555 493.00381637 82.41832478 495.66163635 81.28294373 C497.26523967 80.59809307 498.86915253 79.91396639 500.47349548 79.23085022 C501.60362816 78.7485923 501.60362816 78.7485923 502.7565918 78.2565918 C503.56176239 77.91712021 504.36693298 77.57764862 505.19650269 77.22789001 C507.32528349 76.29551577 509.43210198 75.3128054 511.52737427 74.30738831 C520.82628517 69.90291383 529.71689398 67.43221399 539.85523987 65.78377342 C542.44220493 65.36288816 545.02370827 64.91630387 547.60534668 64.46394348 C551.3149997 63.81602511 555.02609905 63.17769797 558.73876953 62.54730225 C568.51468121 60.8827027 578.27518931 59.13237667 588.03125 57.35546875 C589.00895355 57.17751015 589.9866571 56.99955154 590.99398804 56.81620026 C609.84491649 53.36542891 628.44497356 49.15563584 647 44.375 C647.64510529 44.20910999 648.29021057 44.04321999 648.9548645 43.87230301 C653.24384495 42.76774065 657.5288527 41.64848315 661.8125 40.5234375 C662.9621373 40.22326721 664.1117746 39.92309692 665.29624939 39.61383057 C670.33859327 38.28513421 675.34502704 36.91527145 680.31274414 35.32885742 C698.29839764 29.7717727 716.90640063 29.00135981 735.5871582 27.91674805 C739.48880396 27.68831293 743.38543987 27.42454942 747.2824707 27.12768555 C787.76821941 24.05598142 787.76821941 24.05598142 806.64573669 33.84883118 C810.62263734 35.79342422 814.80155208 37.1199682 819 38.5 C826.44420571 41.06307546 833.82150057 43.78311763 841.1875 46.5625 C843.21350651 47.32170842 845.23954748 48.08082485 847.265625 48.83984375 C850.84814545 50.18358686 854.41977335 51.55092298 857.984375 52.94140625 C859.46847881 53.50332094 860.95283557 54.06456822 862.4375 54.625 C863.08033936 54.88482666 863.72317871 55.14465332 864.38549805 55.41235352 C874.17869522 59.03998711 882.91662062 54.83839188 892.12796021 51.28085327 C895.14248215 50.11708095 898.16588102 48.97724057 901.18894958 47.83589172 C902.82150021 47.21939738 904.45362226 46.60176707 906.08534241 45.983078 C915.72194212 42.3335718 925.39957791 38.79709861 935.08261108 35.27297974 C938.04039536 34.19555203 940.99642558 33.11340764 943.95239258 32.03100586 C945.7715449 31.36804623 947.59079465 30.70535384 949.41015625 30.04296875 C950.25124939 29.73421814 951.09234253 29.42546753 951.95892334 29.10736084 C957.77132992 27 957.77132992 27 960 27 C960 74.85 960 122.7 960 172 C956.52397477 171.30479495 953.75972851 170.64370216 950.51806641 169.42456055 C949.65644394 169.10260208 948.79482147 168.78064362 947.90708923 168.44892883 C946.98126541 168.09839951 946.05544159 167.74787018 945.1015625 167.38671875 C944.12631119 167.02059982 943.15105988 166.6544809 942.14625549 166.27726746 C940.05544409 165.49153033 937.96532109 164.70395942 935.87582397 163.91473389 C932.61212244 162.68263853 929.34597117 161.45722984 926.0793457 160.23291016 C916.45694689 156.61915617 906.85033534 152.9785618 897.31640625 149.13671875 C895.90609122 148.57266257 894.49577237 148.00861594 893.08544922 147.44458008 C890.56531927 146.43532785 888.05970754 145.40282503 885.55517578 144.35424805 C884.43739746 143.90476807 883.31961914 143.45528809 882.16796875 142.9921875 C881.23235107 142.60401855 880.2967334 142.21584961 879.33276367 141.81591797 C870.01199346 139.53403283 860.21790588 141.42188069 850.83908081 142.66676331 C848.50885141 142.97586644 846.1776119 143.27602448 843.84594727 143.57409668 C838.89628944 144.20838603 833.94805756 144.85336106 829 145.5 C823.25834478 146.25035057 817.51616747 146.99610184 811.77243042 147.73036194 C809.49472658 148.02387556 807.21821852 148.32563116 804.94165039 148.62780762 C790.52950318 150.50942081 779.55607854 149.74398547 765.74609375 145.29296875 C764.19436839 144.80552559 762.64219932 144.31949295 761.08961487 143.83479309 C757.02686303 142.56243341 752.9702229 141.27160411 748.91467285 139.97650146 C744.80658958 138.66804061 740.69318524 137.37654802 736.58007812 136.08398438 C731.23231816 134.40229504 725.88644194 132.71497636 720.54405499 131.01629257 C717.36415939 130.00621563 714.18226564 129.00258738 711 128 C709.46306488 127.51376915 709.46306488 127.51376915 707.89508057 127.01771545 C707.00568787 126.74213303 706.11629517 126.4665506 705.19995117 126.18261719 C704.45581467 125.9505658 703.71167816 125.7185144 702.94499207 125.47943115 C695.44311201 123.63025394 687.80672369 128.45226753 681.125 131.4375 C679.83410104 132.00659712 678.54283047 132.57485193 677.2512207 133.14233398 C674.41011155 134.39217635 671.57131357 135.64709458 668.73388672 136.90527344 C663.56973222 139.19333323 658.39651735 141.46055537 653.22265625 143.7265625 C646.07774458 146.85685701 638.93390871 149.98956037 631.79296875 153.12890625 C631.03774429 153.46076935 630.28251984 153.79263245 629.50440979 154.134552 C628.7800322 154.4531015 628.0556546 154.771651 627.30932617 155.09985352 C626.24094009 155.55982224 626.24094009 155.55982224 625.15097046 156.02908325 C623.67956951 156.69325222 622.23039834 157.4083498 620.80435181 158.16500854 C611.90733736 162.71322148 604.3845613 160.36682043 595.22383118 157.47433472 C594.1664122 157.12960114 593.10899323 156.78486755 592.01953125 156.4296875 C590.88964279 156.0703714 589.75975433 155.7110553 588.59562683 155.34085083 C584.99821776 154.19481442 581.40529297 153.0354172 577.8125 151.875 C575.45147357 151.11884898 573.09014744 150.36363311 570.72851562 149.609375 C569.56673798 149.23822571 568.40496033 148.86707642 567.20797729 148.48468018 C562.59765931 147.01307892 557.98680871 145.54316477 553.37506104 144.0760498 C551.12270568 143.3579453 548.87136055 142.63666458 546.62103271 141.91223145 C543.4422294 140.89109062 540.25899349 139.88514813 537.07421875 138.8828125 C536.12642044 138.57479706 535.17862213 138.26678162 534.20210266 137.94943237 C533.32418564 137.67624176 532.44626862 137.40305115 531.54174805 137.12158203 C530.78137741 136.87957062 530.02100677 136.6375592 529.2375946 136.38821411 C526.49754961 135.91282678 524.65437248 136.18743871 522 137 C520.30169468 138.14322164 520.30169468 138.14322164 518.89379883 139.68383789 C518.34005081 140.24434341 517.7863028 140.80484894 517.21577454 141.38233948 C516.63538925 141.98964401 516.05500397 142.59694855 515.45703125 143.22265625 C514.84736008 143.84273056 514.2376889 144.46280487 513.60954285 145.10166931 C511.66744025 147.07934287 509.73926179 149.06988655 507.8125 151.0625 C505.87331332 153.05686581 503.93130217 155.04826358 501.98332214 157.03404236 C500.77246006 158.26948201 499.56698373 159.51022707 498.36738586 160.75660706 C496.94922457 162.20880118 495.4790954 163.6099187 494 165 C493.34 165 492.68 165 492 165 C491.67 165.99 491.34 166.98 491 168 C490.34 168 489.68 168 489 168 C489 168.66 489 169.32 489 170 C487.53646851 171.4410553 487.53646851 171.4410553 485.50927734 173.11743164 C481.05557588 176.90682588 476.95061391 180.95470819 472.8515625 185.12109375 C471.33736771 186.64791354 469.8230411 188.17460261 468.30859375 189.70117188 C465.94976775 192.084976 463.59258711 194.47036703 461.23779297 196.8581543 C458.94668707 199.17927571 456.64955394 201.49429207 454.3515625 203.80859375 C453.28912827 204.89121742 453.28912827 204.89121742 452.20523071 205.99571228 C451.55049774 206.65382401 450.89576477 207.31193573 450.22119141 207.98999023 C449.64575592 208.57288315 449.07032043 209.15577606 448.47744751 209.7563324 C447 211 447 211 445 211 C445 211.66 445 212.32 445 213 C443.56640625 214.76171875 443.56640625 214.76171875 441.5625 216.6875 C440.92441406 217.33074219 440.28632813 217.97398437 439.62890625 218.63671875 C429.90828135 223.67757773 407.92714525 214.68509477 397.49972248 212.26317406 C392.9779425 211.2130147 388.4538316 210.18096082 383.91772461 209.19433594 C363.22586069 204.68197028 345.64663028 200.48299767 329.01345825 186.6552124 C326.28276577 184.41038013 323.42121922 182.46464371 320.48828125 180.4921875 C318.76238397 179.28737013 317.03710017 178.08167336 315.3125 176.875 C305.98519011 170.3682597 296.61466681 163.92779319 287.22119141 157.51708984 C283.56043525 155.01676683 279.90445503 152.50952091 276.25 150 C275.61843994 149.5671167 274.98687988 149.1342334 274.33618164 148.68823242 C273.73539795 148.27549072 273.13461426 147.86274902 272.515625 147.4375 C271.96399405 147.06112239 271.41236311 146.68474478 270.84401608 146.29696178 C269.6804827 145.47860757 268.53497891 144.63339444 267.41787815 143.7527132 C263.03567148 140.35346124 259.05158236 138.82063707 253.68139648 137.59643555 C252.8804657 137.400634 252.07953491 137.20483246 251.2543335 137.00309753 C248.62999667 136.36570224 246.00096564 135.75083895 243.37109375 135.13671875 C241.53431009 134.69663358 239.69781184 134.25535567 237.86158752 133.8129425 C234.02331369 132.89158955 230.18277028 131.98066715 226.34008789 131.07788086 C221.42150091 129.92204654 216.50789319 128.74652965 211.59567165 127.5639677 C207.8077351 126.65324558 204.0180855 125.74984064 200.22780037 124.84894753 C198.41539431 124.41787182 196.603351 123.98526798 194.7916851 123.55109215 C192.25910933 122.94596761 189.72455997 122.34996604 187.18920898 121.7565918 C186.44566666 121.57743225 185.70212433 121.39827271 184.93605042 121.21368408 C178.8475905 119.80581411 173.99915499 118.95626824 168.5078125 122.24609375 C167.22777344 122.99439453 167.22777344 122.99439453 165.921875 123.7578125 C164.99890625 124.31210937 164.0759375 124.86640625 163.125 125.4375 C153.5327661 131.03505686 143.82826442 136.33254248 134 141.5 C123.25908805 147.15876735 112.61168115 152.93937484 102.078125 158.97851562 C100.42495657 159.92621565 98.76866132 160.86849526 97.10839844 161.80371094 C95.32975896 162.8128973 93.57236238 163.85938874 91.8203125 164.9140625 C87.11653181 166.72521351 83.12833848 165.42550138 78.51953125 163.6875 C77.27980958 163.13397106 76.04430244 162.57093508 74.8125 162 C74.12866745 161.69217087 73.4448349 161.38434174 72.74028015 161.06718445 C71.26215146 160.40072596 69.78581651 159.73027752 68.31112671 159.0562439 C65.15266551 157.61274651 61.98560313 156.18861349 58.81877136 154.76359558 C57.14664959 154.01111975 55.47495413 153.25769592 53.80366516 152.50337219 C44.13599895 148.14501739 34.41299533 143.91481423 24.6875 139.6875 C23.01103552 138.95775623 21.33460245 138.2279403 19.65820312 137.49804688 C16.70692457 136.21374556 13.75555922 134.92964637 10.8034668 133.6472168 C10.23476364 133.40013474 9.66606049 133.15305267 9.0801239 132.89848328 C6.05626768 131.59236673 3.02755363 130.29752298 0 129 C0 86.43 0 43.86 0 0 Z " fill="#2B42D7" transform="translate(0,227)"/>
<path d="M0 0 C11.23809524 5.61904762 11.23809524 5.61904762 14.875 7.98828125 C15.70112793 8.52122803 16.52725586 9.0541748 17.37841797 9.60327148 C18.24354004 10.16731689 19.10866211 10.7313623 20 11.3125 C28.23446449 16.6171915 36.52277002 21.82020508 44.875 26.9375 C53.75204296 32.3808003 62.60827704 37.85456014 71.4375 43.375 C72.45634277 44.01171631 73.47518555 44.64843262 74.52490234 45.30444336 C81.58944901 49.72629934 81.58944901 49.72629934 85 52 C90.00481243 51.65553571 94.32120634 50.33269798 98.99829102 48.57910156 C99.65957504 48.33339417 100.32085907 48.08768677 101.00218201 47.83453369 C103.17195388 47.02649765 105.3378661 46.20860574 107.50390625 45.390625 C109.02953927 44.8204612 110.55541765 44.25095357 112.08152771 43.68206787 C116.09466076 42.18425327 120.10464739 40.67819186 124.11395264 39.17016602 C128.94431115 37.35491351 133.77811182 35.54885384 138.6115942 33.74193954 C143.08494316 32.06951157 147.55717748 30.3942093 152.02704811 28.71250439 C153.397794 28.19967347 154.77014675 27.69111564 156.14412498 27.18700886 C159.29928845 26.02871293 162.39587668 24.82962451 165.48536682 23.49998474 C175.40546264 19.41345763 183.96337567 19.54545772 194.45703125 20.19140625 C196.23212682 20.28382623 198.00726447 20.37544101 199.78244019 20.46630859 C205.46333617 20.77462203 211.13731158 21.16430499 216.8125 21.5625 C217.77769688 21.62721874 218.74289375 21.69193748 219.73733902 21.7586174 C250.60418849 23.83440995 276.70681209 28.54833524 305.06713867 41.34008789 C305.99553558 41.75590118 306.9239325 42.17171448 307.88046265 42.60012817 C309.51259186 43.3325354 311.14425041 44.06606978 312.77069473 44.81101608 C336.23328127 55.5421379 356.4314843 58.6882125 382.12948608 58.06436157 C391.10153173 57.84722553 400.07524434 57.85514034 409.04948616 57.85281181 C411.15192918 57.85197686 413.25437238 57.84904317 415.35680962 57.84404182 C440.69231401 57.79320952 465.91044801 59.21428828 491.1875 60.8125 C493.36863233 60.94849162 495.54977448 61.08432599 497.73092651 61.22000122 C511.82379125 62.10034754 525.91285578 63.03264711 540 64 C540.84449455 64.05795998 541.68898911 64.11591995 542.5590744 64.17563629 C547.88728789 64.54193585 553.21523901 64.91188854 558.54296875 65.28515625 C559.22829618 65.33315935 559.91362362 65.38116245 560.61971855 65.43062019 C567.25467936 65.89636467 573.88849987 66.37274115 580.52026367 66.88208008 C586.01108171 67.30066797 591.50247235 67.68101857 597 68 C597.76803955 68.04588257 598.5360791 68.09176514 599.32739258 68.13903809 C608.78256484 68.63954501 616.15289129 67.61514937 624.75 63.5 C626.36261719 62.77490234 626.36261719 62.77490234 628.0078125 62.03515625 C630.38335134 60.9648292 632.75175279 59.88515627 635.11523438 58.7890625 C639.31291139 56.84727994 643.53725686 54.96756997 647.765625 53.09375 C648.51876984 52.75981735 649.27191467 52.4258847 650.04788208 52.08183289 C651.5882684 51.39899206 653.12872506 50.71630988 654.66925049 50.03378296 C657.00627218 48.99721803 659.34197088 47.95772934 661.67724609 46.91723633 C682.4579639 37.65939083 703.30593782 28.97356943 724.71839905 21.26856995 C732.67852094 18.40197538 740.61651385 15.47536376 748.55480957 12.54898071 C750.99275476 11.65069825 753.43136703 10.75424867 755.87011719 9.8581543 C756.63780426 9.57552231 757.40549133 9.29289032 758.19644165 9.00169373 C759.69917333 8.44869886 761.20239951 7.89704569 762.70614624 7.34681702 C766.07037448 6.11000383 769.41395908 4.84643081 772.72607422 3.47558594 C773.84643066 3.01700195 774.96678711 2.55841797 776.12109375 2.0859375 C777.07298584 1.68165527 778.02487793 1.27737305 779.00561523 0.86083984 C786.65027703 -1.33688355 793.55124268 0.60723992 801.0390625 2.52734375 C802.1140097 2.79454727 803.18895691 3.06175079 804.29647827 3.33705139 C807.7415791 4.19510991 811.18335581 5.06569117 814.625 5.9375 C819.07459339 7.05450183 823.52550392 8.16619671 827.9765625 9.27734375 C829.14486603 9.56999619 830.31316956 9.86264862 831.51687622 10.16416931 C840.58363679 12.42564001 849.67166932 14.58527796 858.76877594 16.7206459 C879.31577761 21.54529865 899.77855447 26.67856577 920.23065186 31.88922119 C925.5480193 33.24307879 930.86658792 34.5922103 936.18493652 35.94220734 C944.12417661 37.95800963 952.06194498 39.97951025 960 42 C960 56.19 960 70.38 960 85 C938.95178817 85.56152333 938.95178817 85.56152333 929.77929688 85.68359375 C923.58864363 85.76638015 917.40096323 85.86279855 911.21264648 86.05615234 C886.19158512 86.81715468 866.70400116 86.24632352 845.04708862 72.81297302 C839.79011037 69.68514809 834.23281665 67.19328967 828.6875 64.625 C826.64175759 63.6476054 824.59726523 62.66758483 822.5546875 61.68359375 C821.6069043 61.22710449 820.65912109 60.77061523 819.68261719 60.30029297 C815.87882712 58.45655563 812.09197279 56.58049938 808.3125 54.6875 C807.37519043 54.22089966 807.37519043 54.22089966 806.41894531 53.74487305 C803.30462019 52.18729569 800.22249744 50.58673011 797.1640625 48.921875 C796.22373169 48.42167847 796.22373169 48.42167847 795.2644043 47.91137695 C793.56375126 47.00480139 791.87322112 46.07930618 790.18359375 45.15234375 C781.97582342 42.18143302 774.51274121 47.24602729 767.125 50.6875 C764.53653542 51.87570073 761.94441688 53.05578868 759.3515625 54.234375 C758.67857117 54.54092514 758.00557983 54.84747528 757.31219482 55.16331482 C748.09056145 59.34587661 738.74480709 63.23946965 729.40673828 67.15307617 C723.46548659 69.64804193 717.55149928 72.17680964 711.7109375 74.90234375 C703.26712485 78.83999654 694.69322854 82.46862744 686.125 86.125 C684.31025626 86.90093299 682.49556006 87.67697715 680.6809082 88.453125 C674.78872044 90.97214808 668.89454683 93.48650301 663 96 C661.41387909 96.67645569 661.41387909 96.67645569 659.79571533 97.36657715 C652.26058757 100.57993607 644.72441994 103.79084704 637.1875 107 C636.15796204 107.43846252 635.12842407 107.87692505 634.06768799 108.32867432 C631.14305745 109.57393243 628.21808047 110.81837268 625.29296875 112.0625 C623.98949242 112.61754715 623.98949242 112.61754715 622.65968323 113.18380737 C621.8531279 113.5266275 621.04657257 113.86944763 620.21557617 114.22265625 C619.51840988 114.51922119 618.82124359 114.81578613 618.10295105 115.12133789 C617.4089772 115.41129639 616.71500336 115.70125488 616 116 C614.85989723 116.51417732 614.85989723 116.51417732 613.69676208 117.03874207 C610.35253033 118.23078987 607.15622011 118.68420697 603.63623047 119.1574707 C602.90591331 119.25710271 602.17559614 119.35673471 601.42314816 119.45938587 C598.98875212 119.78889249 596.55313528 120.10796166 594.1171875 120.42578125 C592.37765588 120.65620787 590.6381286 120.88666721 588.89860535 121.11715698 C583.22596258 121.86387921 577.55070534 122.58948355 571.875 123.3125 C570.91047283 123.43609013 569.94594566 123.55968025 568.9521904 123.68701553 C540.03758797 127.38761112 511.15596204 130.34762258 482.0625 132.1875 C480.87727879 132.26325949 480.87727879 132.26325949 479.66811371 132.34054947 C474.41639742 132.67493598 469.16385828 132.9914515 463.91015625 133.29296875 C462.62827927 133.36740204 461.34640228 133.44183533 460.02568054 133.51852417 C453.48989761 133.86612094 446.96007419 134.08542 440.41577148 134.14135742 C439.12984604 134.15301437 437.84392059 134.16467133 436.51902771 134.17668152 C431.15801682 133.90751866 426.86283516 132.27759116 422 130.125 C419.79611038 129.21558126 417.5901822 128.31109514 415.3828125 127.41015625 C414.76890656 127.15606491 414.15500061 126.90197357 413.52249146 126.6401825 C404.15673598 122.78434964 394.63724131 119.31831285 385.14746094 115.78240967 C380.88005837 114.19160515 376.61520748 112.59402514 372.35037231 110.99635315 C366.85930593 108.93725382 366.85930593 108.93725382 361.36077881 106.89822388 C359.87039662 106.33116657 358.39113654 105.73304867 356.9307251 105.09274292 C347.45357039 101.04136217 337.45809873 103.29457309 327.55792046 104.66676331 C325.3122875 104.97687077 323.06549582 105.27681716 320.81813049 105.57409668 C314.43379643 106.41969661 308.05112972 107.27696318 301.67114258 108.15478516 C283.7655957 110.61135534 266.26044202 112.73396185 248.14187622 112.10345459 C244.77612968 111.99262848 241.4118086 111.93454069 238.04467773 111.88134766 C230.19045485 111.73321326 222.34603034 111.44090767 214.5 111.0625 C213.77858574 111.02807045 213.05717148 110.9936409 212.31389618 110.95816803 C183.31553898 109.530307 155.44925942 104.56496731 127.05252075 98.73028564 C84.83872746 90.06547958 42.94611415 85.45733969 0 81 C0 54.27 0 27.54 0 0 Z " fill="#2134A6" transform="translate(0,103)"/>
</svg>
